<?xml version="1.0" encoding="UTF-8"?>
<svg width="141px" height="201px" viewBox="0 0 141 201" version="1.1" xmlns="http://www.w3.org/2000/svg" xmlns:xlink="http://www.w3.org/1999/xlink">
    <!-- Generator: sketchtool 57.1 (101010) - https://sketch.com -->
    <title>C51CD8FF-BC04-46C6-A1E0-0013EA169AF2</title>
    <desc>Created with sketchtool.</desc>
    <defs>
        <path d="M123.093488,183.5551 C123.223053,183.342875 123.343682,183.245604 123.450908,183.214655 C123.173908,181.339994 123.196246,179.606818 124.335522,178.961298 C126.493444,177.741 129.902335,172.846545 129.902335,170.697759 C129.902335,168.566659 125.881362,168.566659 125.881362,165.807725 C125.881362,163.057634 130.206141,158.45941 128.352026,156.929616 C126.497911,155.404244 131.1399,150.80602 130.831626,148.361003 C130.518884,145.907143 128.669236,134.889092 129.906802,133.673215 C131.1399,132.452917 133.927775,131.537694 132.690209,128.168611 C131.711772,125.502525 127.306574,118.118839 125.479265,113.609043 C122.034632,113.127114 117.826015,113.202277 115.368754,114.090972 C111.968798,115.315691 112.89809,104.598293 112.89809,100.623482 C112.89809,96.6442499 109.498134,98.7841925 108.260568,101.543127 C107.018535,104.293218 102.077207,103.068499 97.126943,103.068499 C92.1722116,103.068499 94.6518111,96.944903 91.5601303,97.2499775 C88.4684494,97.5638947 85.9933176,96.3347541 86.3060598,93.2795881 C86.6098666,90.2155794 84.1347348,87.7705624 81.9723453,84.4014792 C79.8099558,81.032396 77.3303562,77.6765769 79.188939,75.532213 C81.0475217,73.3834276 77.9603085,71.5529809 80.7392471,68.798468 C83.5226535,66.0439551 86.3105276,66.9591785 85.3812362,63.2894422 C84.4564126,59.619706 88.4684494,57.4797634 88.7811917,53.4961099 C89.0894662,49.5168778 93.7269875,50.7371757 98.0562343,47.3813566 C102.385481,44.0034307 107.018535,45.8427202 110.731232,42.7831328 C114.220543,39.909243 116.610787,42.3940524 119.193145,42.2039335 C117.638369,40.0639909 113.836317,38.9940196 112.969574,37.3006353 C111.879443,35.1253217 116.972675,31.1681965 118.42916,28.6391734 C119.885646,26.1322572 112.603218,23.2406819 110.784845,22.5155774 C108.962005,21.8037369 105.687146,23.9525223 103.864305,22.8781296 C102.045932,21.8037369 99.1329613,22.5155774 97.6809436,23.6032341 C96.2289258,24.6776268 85.3008168,25.4027313 85.667172,22.1574465 C86.0290595,18.916583 81.2977155,17.8421903 81.6640708,15.6668768 C82.030426,13.5180914 79.1129873,9.54328072 75.109886,9.1895712 C71.1067847,8.83144031 71.8350275,2.345292 68.9265242,0.550216186 C67.2689901,-0.47996279 63.1675984,0.125764763 59.9195464,0.828762433 C63.4133245,4.73283126 64.6598259,6.35989505 62.3455329,8.19918455 C59.271723,10.6353589 62.3455329,11.0642317 56.5463974,18.7176214 C50.7427941,26.3886966 40.8288636,28.2898853 35.9902937,29.7356729 C31.1606592,31.1681965 29.2216571,40.0065131 26.5633476,46.2406434 C23.9050382,52.4570882 21.7292454,50.3038815 19.070936,46.7137299 C16.4126266,43.1191569 14.232366,47.4299916 11.0870722,44.5649445 C7.94624608,41.7043188 9.39826384,41.7043188 11.0870722,39.3035154 C12.0029603,38.0168971 10.9887818,35.9565391 9.06318282,33.9801872 C5.61408217,34.6831848 2.12030406,39.4140497 0.404689227,43.0174654 C-1.4538935,46.9259556 3.65274126,54.4953393 4.34970978,57.2454308 C5.04667831,60.0043651 1.56630343,57.4797634 1.10165775,60.0043651 C0.637012068,62.520124 8.75490828,66.1942817 12.4631382,68.9443732 C16.1803037,71.7033074 19.423888,79.5158664 22.8997951,83.1811813 C26.38017,86.855339 26.6169606,90.0652529 30.3251906,99.0185251 C34.0378883,107.967376 41.458816,123.119407 46.560983,129.543657 C51.6676177,135.967906 53.9819107,141.021531 52.8247642,142.86082 C51.6676177,144.70011 53.057087,149.749313 56.765317,152.273915 C60.4780147,154.789674 63.4892762,158.928075 73.2334323,163.751789 C82.9731206,168.571081 100.830705,177.745421 103.386256,182.113734 C105.93734,186.464361 114.287559,190.598341 115.909351,191.522407 C116.351658,191.774425 116.490158,192.495108 116.499094,193.454545 C117.459659,192.671963 118.263854,192.070657 118.773177,191.827482 C121.855922,190.293267 122.164197,185.093737 123.093488,183.5551 Z" id="path-1"></path>
        <filter x="-5.3%" y="-2.6%" width="110.5%" height="107.2%" filterUnits="objectBoundingBox" id="filter-2">
            <feOffset dx="0" dy="2" in="SourceAlpha" result="shadowOffsetOuter1"></feOffset>
            <feGaussianBlur stdDeviation="2" in="shadowOffsetOuter1" result="shadowBlurOuter1"></feGaussianBlur>
            <feColorMatrix values="0 0 0 0 0   0 0 0 0 0   0 0 0 0 0  0 0 0 0.00993546196 0" type="matrix" in="shadowBlurOuter1"></feColorMatrix>
        </filter>
    </defs>
    <g id="design" stroke="none" stroke-width="1" fill="none" fill-rule="evenodd">
        <g id="choose-country1" transform="translate(-612.000000, -385.000000)">
            <g id="Group-8" transform="translate(616.000000, 387.000000)">
                <g id="peru">
                    <use fill="black" fill-opacity="1" filter="url(#filter-2)" xlink:href="#path-1"></use>
                    <use fill="#999999" fill-rule="evenodd" xlink:href="#path-1"></use>
                </g>
                <text id="Peru" font-family="IBMPlexSerif, IBM Plex Serif" font-size="30" font-weight="normal" fill="#222222">
                    <tspan x="0" y="154">Peru</tspan>
                </text>
            </g>
        </g>
    </g>
</svg>