<?xml version="1.0" encoding="UTF-8"?>
<svg width="132px" height="228px" viewBox="0 0 132 228" version="1.1" xmlns="http://www.w3.org/2000/svg" xmlns:xlink="http://www.w3.org/1999/xlink">
    <!-- Generator: sketchtool 57.1 (101010) - https://sketch.com -->
    <title>C954D194-57A2-415B-A77C-C7B82A96F430</title>
    <desc>Created with sketchtool.</desc>
    <g id="design" stroke="none" stroke-width="1" fill="none" fill-rule="evenodd">
        <g id="choose-country1" transform="translate(-285.000000, -370.000000)">
            <g id="Group-7" transform="translate(285.000000, 370.912341)">
                <path d="M130.532818,52.4603306 C129.028533,50.9699161 126.042416,46.9790171 128.530099,46.9790171 C131.031253,46.9790171 132.023632,39.5000094 129.028533,38.0006165 C126.042416,36.5012236 129.028533,30.0053509 126.527379,28.5149364 C124.026225,27.0155435 125.53051,22.0190636 126.042416,18.5264658 C126.527379,15.0248896 116.540724,12.0395714 111.044471,9.54357605 C105.557199,7.0430915 103.065026,3.05219247 98.5701332,0.556197123 C94.0797307,-1.93979822 92.5754458,4.54260696 92.5754458,8.54697359 C92.5754458,12.5378726 88.583478,13.0361739 85.5838891,10.5356893 C82.5843003,8.03520476 79.0952575,10.5356893 74.6003646,8.54697359 C70.1054717,6.54479028 72.1081912,13.0361739 72.1081912,16.0304704 C72.1081912,19.0202778 67.1058828,19.0202778 64.1152748,19.0202778 C61.1156859,19.0202778 56.1313391,21.5207624 56.1313391,25.0133602 C56.1313391,28.5014688 51.6364462,30.5036521 53.1272599,32.5058354 C54.6270543,34.4990403 52.6333156,36.5012236 50.6305961,38.0006165 C48.6368574,39.491031 46.6431186,44.4785325 45.1388338,45.9824146 C43.6390394,47.4773183 46.1357032,49.9733136 43.1450951,51.9710077 C40.154487,53.9597235 36.6519731,52.4603306 35.1611595,53.9597235 C33.661365,55.4591164 35.1611595,58.9606926 34.6672152,63.4588712 C34.1597997,67.9390931 30.6617761,72.935573 27.6666777,76.926472 C24.68056,80.9263495 28.6680374,81.9274411 30.1723223,82.4167639 C31.6631359,82.9240436 31.6631359,85.4200389 30.1723223,88.4098463 C28.6680374,91.4176105 25.1745043,89.410938 23.1762752,88.9216151 C21.1825365,88.4098463 15.6862838,90.9103308 12.6911853,95.9068107 C9.69159646,100.898801 10.6884658,103.893098 11.6808448,106.389093 C12.6822045,108.885089 9.18867138,111.883874 11.6808448,116.875865 C14.181999,121.867856 10.6839754,122.864458 11.1913909,126.859847 C11.6808448,130.850746 17.6800225,130.352444 18.1829476,134.343343 C18.6813823,138.334242 16.1847185,139.833635 14.181999,139.833635 C12.1882603,139.833635 12.6911853,143.824534 14.6894144,144.825626 C16.6786628,145.831207 16.1802281,152.811913 15.1833587,154.818586 C14.1775086,156.811791 7.69336735,154.818586 8.18731162,157.305603 C8.6857463,159.806087 6.68751719,163.796986 6.68751719,165.79917 C6.68751719,167.792375 6.18908251,174.283758 4.19085339,172.779876 C3.40503296,172.19628 2.14772026,172.151388 0.908369166,172.317488 C0.917349971,172.631732 0.917349971,172.941487 0.908369166,173.305112 C0.755695481,177.183782 2.15670106,181.075918 5.56940696,183.863712 C8.99109367,186.669462 6.3462466,190.853396 9.29644104,194.741044 C12.2511259,198.63318 11.3171222,201.425463 14.5816448,204.226724 C17.8461674,207.019006 18.1604956,208.576759 16.7549996,212.145673 C15.3584844,215.723566 19.5570108,214.785323 19.705194,216.958096 C19.8713389,219.144336 18.7846615,223.642515 19.8713389,225.819777 C20.9535259,227.99255 23.1358616,225.819777 28.1022467,225.667144 C33.0731223,225.514512 31.8382616,222.399007 31.9864449,219.445113 C32.1346282,216.500197 34.631292,217.89185 35.2509675,216.033321 C35.870643,214.165813 40.3790072,213.698936 43.9533675,215.243221 C47.5232375,216.809952 49.3822642,214.165813 50.0154109,210.435288 C50.6305961,206.709252 52.6467868,211.21192 53.742445,211.984062 C54.824632,212.765183 58.0981354,206.242375 59.6383435,202.049462 C61.1965132,197.843081 59.4901602,198.63318 55.9113094,202.659993 C52.3414394,206.704762 54.3621205,198.63318 55.7631261,195.365043 C57.1551509,192.101394 57.0069676,182.615714 57.4694791,180.451919 C57.9409713,178.274657 58.8704847,175.011009 63.3743584,174.081744 C67.8782321,173.14799 73.7876018,167.554447 72.8580885,165.23353 C71.9195943,162.894657 79.0728055,159.020477 79.0728055,156.686093 C79.0728055,154.351709 71.6097566,147.204902 69.126564,145.651639 C66.6343906,144.102865 61.2010036,145.341884 61.6680054,143.635988 C62.1305169,141.925603 61.0393491,135.245673 60.4241639,131.824902 C59.799998,128.399642 64.3038717,124.835217 64.3038717,121.567079 C64.3038717,118.303431 64.151198,114.577395 67.096902,113.491008 C70.0515869,112.409111 68.1925603,109.616828 72.0812488,108.678585 C75.9519758,107.749321 75.184117,102.155778 79.3826433,100.445392 C83.5811696,98.7394961 83.8775362,97.3298872 89.3243944,94.7037051 C94.7667623,92.0550769 103.931674,85.8420237 105.494334,82.5783752 C107.043523,79.3192158 99.8903115,75.893956 104.403166,72.4776746 C108.91153,69.0613932 105.180006,65.1737457 108.440038,63.9347265 C111.70456,62.6867288 112.948402,60.9853219 115.283411,58.5027941 C117.60944,56.0157772 120.712308,58.3501613 126.307349,57.4164077 C128.350483,57.0752284 130.227471,57.2413289 131.996689,57.6722921 C131.763188,55.1807859 131.210869,53.1561566 130.532818,52.4603306 Z M76.8760282,188.58663 C71.5315272,188.75444 69.0200595,200.813489 70.3918012,202.794585 C71.5315272,204.402769 82.2245997,188.423481 76.8760282,188.58663 Z" id="Mask" fill="#999999"></path>
                <text id="Sweden" font-family="IBMPlexSerif, IBM Plex Serif" font-size="30" font-weight="normal" fill="#222222">
                    <tspan x="0" y="170.087659">Sweden</tspan>
                </text>
            </g>
        </g>
    </g>
</svg>