<?xml version="1.0" encoding="UTF-8"?>
<svg width="141px" height="143px" viewBox="0 0 141 143" version="1.1" xmlns="http://www.w3.org/2000/svg" xmlns:xlink="http://www.w3.org/1999/xlink">
    <!-- Generator: sketchtool 57.1 (101010) - https://sketch.com -->
    <title>451291C3-BA19-43FA-9829-1136A4694D17</title>
    <desc>Created with sketchtool.</desc>
    <defs>
        <path d="M124.365265,108.020396 C124.004831,100.609434 119.663957,100.609434 119.846785,95.5382253 C120.034838,90.4931301 120.390048,85.9650789 118.582656,85.416699 C116.77004,84.8683191 117.856565,80.5335065 120.745257,76.1986938 C123.649621,71.8691039 115.516358,71.3102787 114.241782,65.8943742 C113.708967,63.5807333 116.294686,55.8041839 119.627391,47.3121294 C109.498684,40.3242026 99.1087938,32.7356692 99.1087938,32.7356692 L99.7304112,25.2202531 L53.5270021,0.710282547 C53.2188052,6.34553893 50.9151644,10.7012422 47.6190252,12.2210379 C44.0878206,13.8348417 52.5083854,18.9896128 48.4339185,19.8095713 C44.3751227,20.6086392 35.1501119,16.0074706 28.6361887,18.7075889 C24.269196,20.5459672 25.1728919,9.59925972 28.5735046,0 L18.3716665,0.825181195 C18.3716665,0.825181195 15.6083422,1.51979574 12.6099525,2.36064494 L14.6158438,7.69820937 C14.6158438,7.69820937 17.123208,12.7015232 16.496367,15.8403453 C16.2090648,17.2609104 13.9628844,17.8980757 11.6122305,18.1748769 C12.4427949,21.8568563 12.1084796,24.6039785 12.1084796,24.6039785 L15.2374612,26.4789155 C15.2374612,26.4789155 8.35788068,39.61392 5.2288991,40.8621371 C4.39311103,41.1963877 2.41856172,42.3923782 0,43.9487326 C1.84395743,53.1928511 4.10058521,64.1656719 7.48552688,67.2470447 C13.7225953,72.9397504 12.6412945,79.447192 13.9837791,83.24407 C15.3471584,87.0357254 20.7745572,91.3809833 16.9769451,92.994787 C14.5270414,94.0497655 12.343545,91.4279873 10.1652724,87.8609066 C9.94065433,88.5032944 9.67947056,89.1456823 9.38172106,89.7410662 C9.27202388,89.9499729 9.07874789,90.0962075 8.91681395,90.2737781 C12.2390715,92.7232084 16.109815,95.3032053 17.7448254,95.3032053 C20.873807,95.3032053 25.8780881,99.0530793 29.0070696,99.6850219 C32.1360512,100.296074 43.2990456,104.766676 44.6519775,106.55805 C44.8922666,106.887078 45.1638977,107.299669 45.4407525,107.769709 C48.104827,107.639142 51.6099132,107.529466 53.6784887,107.795822 C54.1277248,107.393677 54.670987,107.085539 55.4702093,107.085539 C59.6021366,107.085539 64.4862731,122.753537 64.2721024,131.861866 C66.7376772,132.190894 70.1121716,132.582594 71.2039197,132.582594 C73.0217588,132.582594 75.1895841,130.060046 78.4439339,131.141138 C81.6982836,132.22223 79.520011,134.75 82.4139272,134.75 C85.313067,134.75 91.0956757,132.942958 92.9030674,133.298099 C94.7209065,133.658463 99.7774243,134.75 100.137858,132.582594 C100.493068,130.42041 101.595263,127.161467 104.123522,127.89264 C106.646557,128.613368 108.448726,130.775551 111.342642,128.242558 C114.247005,125.709566 118.943089,128.242558 120.029614,126.069929 C120.588547,124.941834 127.024115,121.823902 133,119.113339 C132.665685,112.167193 124.720474,115.269457 124.365265,108.020396 Z" id="path-1"></path>
        <filter x="-5.3%" y="-3.7%" width="110.5%" height="110.4%" filterUnits="objectBoundingBox" id="filter-2">
            <feOffset dx="0" dy="2" in="SourceAlpha" result="shadowOffsetOuter1"></feOffset>
            <feGaussianBlur stdDeviation="2" in="shadowOffsetOuter1" result="shadowBlurOuter1"></feGaussianBlur>
            <feColorMatrix values="0 0 0 0 0   0 0 0 0 0   0 0 0 0 0  0 0 0 0.00993546196 0" type="matrix" in="shadowBlurOuter1"></feColorMatrix>
        </filter>
    </defs>
    <g id="design" stroke="none" stroke-width="1" fill="none" fill-rule="evenodd">
        <g id="choose-country1" transform="translate(-943.000000, -415.000000)">
            <g id="Group-9" transform="translate(947.000000, 417.000000)">
                <g id="tanzania">
                    <use fill="black" fill-opacity="1" filter="url(#filter-2)" xlink:href="#path-1"></use>
                    <use fill="#999999" fill-rule="evenodd" xlink:href="#path-1"></use>
                </g>
                <text id="Tanzania" font-family="IBMPlexSerif, IBM Plex Serif" font-size="30" font-weight="normal" fill="#222222">
                    <tspan x="0" y="124">Tanzania</tspan>
                </text>
            </g>
        </g>
    </g>
</svg>