<?xml version="1.0" encoding="UTF-8"?>
<svg width="121px" height="39px" viewBox="0 0 121 39" version="1.1" xmlns="http://www.w3.org/2000/svg" xmlns:xlink="http://www.w3.org/1999/xlink">
    <!-- Generator: sketchtool 57.1 (101010) - https://sketch.com -->
    <title>91F79831-310B-4A66-8741-F9819D079919</title>
    <desc>Created with sketchtool.</desc>
    <g id="design" stroke="none" stroke-width="1" fill="none" fill-rule="evenodd">
        <g id="choose-species-" transform="translate(-24.000000, -16.000000)" fill-rule="nonzero">
            <g id="Group-45" transform="translate(24.000000, 15.500000)">
                <g id="Group-40-Copy-6" transform="translate(0.349711, 0.349711)">
                    <g id="Group-43">
                        <path d="M17.551084,5.54992933 L33.8564644,30.0080001 C34.713543,31.2936179 34.3661433,33.0306165 33.0805254,33.8876951 C32.4316191,34.3202993 31.6315924,34.462409 30.8733962,34.27975 L16.8613951,30.9040831 C15.7847117,30.6446966 14.6618222,30.6446966 13.5851388,30.9040831 L-0.426862229,34.27975 C-1.929006,34.6416352 -3.44010011,33.7172731 -3.80198539,32.2151293 C-3.98464437,31.4569331 -3.84253472,30.6569064 -3.4099305,30.0080001 L12.89545,5.54992933 C13.7525285,4.26431154 15.4895272,3.91691179 16.775145,4.77399039 C17.0824774,4.97887865 17.3461957,5.24259696 17.551084,5.54992933 Z" id="Triangle-Copy-9" fill="#033B31" transform="translate(15.223409, 19.331016) rotate(90.000000) translate(-15.223409, -19.331016) "></path>
                        <path d="M17.9129651,5.16963775 C28.6069292,21.2426797 33.9539113,29.2884426 33.9539113,29.3069267 C33.9539113,29.3069267 33.9539113,29.3069267 33.9539113,29.3069267 C32.1506853,27.5512027 29.5740617,26.8410109 27.1259582,27.4249458 L-0.0834098391,33.9150708 C-1.58636672,34.2735641 -3.09537029,33.3457932 -3.45386367,31.8428363 C-3.63430088,31.0863667 -3.49172209,30.288927 -3.06033652,29.6418487 L13.2559035,5.1674887 C14.1129836,3.88187391 15.8499804,3.53447456 17.1355968,4.39155219 C17.4436515,4.59692198 17.7078795,4.86139378 17.9129651,5.16963775 Z" id="Triangle-Copy-10" fill="#004F49" transform="translate(15.211845, 18.956718) rotate(90.000000) translate(-15.211845, -18.956718) "></path>
                    </g>
                    <g id="Group-43-Copy" transform="translate(18.884393, 2.797688)">
                        <path d="M15.291413,4.76586892 L28.5838988,24.7045977 C29.4409774,25.9902155 29.0935776,27.7272142 27.8079598,28.5842927 C27.1590535,29.0168969 26.3590268,29.1590066 25.6008306,28.9763476 L14.6017241,26.3265249 C13.5250407,26.0671384 12.4021512,26.0671384 11.3254678,26.3265249 L0.326361386,28.9763476 C-1.17578238,29.3382329 -2.68687649,28.4138708 -3.04876177,26.911727 C-3.23142075,26.1535308 -3.0893111,25.3535041 -2.65670688,24.7045977 L10.6357789,4.76586892 C11.4928575,3.48025112 13.2298561,3.13285139 14.515474,3.98992998 C14.8228064,4.19481823 15.0865247,4.45853654 15.291413,4.76586892 Z" id="Triangle-Copy-9" fill="#005F46" transform="translate(12.963738, 16.287284) rotate(90.000000) translate(-12.963738, -16.287284) "></path>
                        <path d="M15.3713716,4.66751738 C24.4326306,18.286779 28.96326,25.1043297 28.96326,25.1201694 C28.96326,25.1201694 28.96326,25.1201694 28.96326,25.1201694 C27.4004642,23.598542 25.1673904,22.9830424 23.0457007,23.4891193 L0.387888296,28.8935828 C-1.11506858,29.2520762 -2.62407216,28.3243052 -2.98256553,26.8213483 C-3.16300274,26.0648787 -3.02042395,25.2674389 -2.58903838,24.6203606 L10.7142979,4.66535617 C11.5713763,3.37973801 13.3083751,3.03233825 14.5939931,3.8894169 C14.9020529,4.09479007 15.1662845,4.35926712 15.3713716,4.66751738 Z" id="Triangle-Copy-10" fill="#008764" transform="translate(12.952169, 16.194906) rotate(90.000000) translate(-12.952169, -16.194906) "></path>
                    </g>
                </g>
                <path d="M50.6241618,16.7861272 L50.6241618,6.68647399 L57.1427746,6.68647399 L57.1427746,8.30913295 L52.7923699,8.30913295 L52.7923699,10.7990751 L56.8490173,10.7990751 L56.8490173,12.4776879 L52.7923699,12.4776879 L52.7923699,16.7861272 L50.6241618,16.7861272 Z M58.0240462,11.876185 C58.0240462,9.19040462 59.2410405,6.46265896 62.8780347,6.46265896 C63.9551445,6.46265896 65.4379191,6.71445087 66.4310983,7.83352601 C67.5082081,9.06450867 67.7180347,10.6452023 67.7180347,11.6383815 C67.7180347,13.1071676 67.2704046,14.6738728 66.4450867,15.5971098 C65.3260116,16.8560694 63.6893642,17.0379191 62.8500578,17.0379191 C61.5211561,17.0379191 60.1922543,16.6182659 59.2690173,15.6530636 C58.1639306,14.4780347 58.0240462,12.799422 58.0240462,11.876185 Z M60.2901734,11.8062428 C60.2901734,12.7714451 60.4440462,13.8485549 61.0455491,14.6319075 C61.3532948,15.0515607 61.8708671,15.443237 62.8780347,15.443237 C63.7593064,15.443237 64.3608092,15.1354913 64.766474,14.5060116 C65.1021965,14.0024277 65.4519075,13.2190751 65.4519075,11.6104046 C65.4519075,11.1208092 65.4099422,10.4213873 65.2001156,9.80589595 C64.7804624,8.56092486 63.9271676,8.01537572 62.8920231,8.01537572 C62.0806936,8.01537572 61.4372254,8.35109827 61.0315607,8.86867052 C60.4580347,9.56809249 60.2901734,10.6591908 60.2901734,11.8062428 Z M69.1588439,16.7861272 L69.1588439,6.67248555 L73.0336416,6.67248555 C74.1527168,6.65849711 75.2857803,6.65849711 76.0971098,7.35791908 C76.7265896,7.90346821 76.9783815,8.64485549 76.9783815,9.30231214 C76.9783815,11.1907514 75.3557225,11.6383815 74.8661272,11.7782659 C76.3908671,11.9181503 76.5027746,12.7854335 76.6846243,14.1003468 C76.8384971,15.2893642 76.9224277,15.7789595 76.9923699,16.0587283 C77.1042775,16.5063584 77.1882081,16.6182659 77.3001156,16.7861272 L74.9080925,16.7861272 C74.8101734,16.2265896 74.5024277,13.6667052 74.3625434,13.2750289 C74.1667052,12.7015029 73.6351445,12.7015029 73.2714451,12.7015029 L71.3690173,12.7015029 L71.3690173,16.7861272 L69.1588439,16.7861272 Z M71.2990751,8.26716763 L71.2990751,11.0928324 L73.0476301,11.0928324 C73.299422,11.0928324 73.8030058,11.0928324 74.1527168,10.8130636 C74.3065896,10.7011561 74.7122543,10.3514451 74.7122543,9.63803468 C74.7122543,8.95260116 74.3765318,8.63086705 74.1806936,8.5049711 C73.8449711,8.26716763 73.4393064,8.26716763 72.7538728,8.26716763 L71.2990751,8.26716763 Z M78.6849711,16.7861272 L78.6849711,6.67248555 L85.4553757,6.67248555 L85.4553757,8.32312139 L80.8531792,8.32312139 L80.8531792,10.7291329 L85.1616185,10.7291329 L85.1616185,12.3797688 L80.8531792,12.3797688 L80.8531792,15.1075145 L85.6092486,15.1075145 L85.6092486,16.7861272 L78.6849711,16.7861272 Z M86.6863584,13.5547977 L88.8965318,13.5547977 C88.8965318,14.0304046 88.8685549,15.4712139 90.7290173,15.4712139 C91.9040462,15.4712139 92.6454335,14.9116763 92.6454335,14.0583815 C92.6454335,13.1631214 92.0159538,13.0092486 90.7290173,12.7015029 C88.3230058,12.1 87.0080925,11.3865896 87.0080925,9.63803468 C87.0080925,7.9734104 88.1971098,6.50462428 91.0087861,6.50462428 C92.0579191,6.50462428 93.3028902,6.74242775 94.0582659,7.69364162 C94.6317919,8.42104046 94.6317919,9.23236994 94.6317919,9.56809249 L92.5475145,9.56809249 C92.5195376,9.2183815 92.4076301,8.02936416 90.9108671,8.02936416 C89.9036994,8.02936416 89.2462428,8.57491329 89.2462428,9.40023121 C89.2462428,10.3374566 89.9876301,10.5053179 91.4424277,10.8690173 C93.1909827,11.2886705 94.9115607,11.7642775 94.9115607,13.7366474 C94.9115607,15.5551445 93.4008092,17.0239306 90.6031214,17.0239306 C86.7283237,17.0239306 86.7003468,14.5339884 86.6863584,13.5547977 Z M98.7304046,16.7861272 L98.7304046,8.35109827 L95.7228902,8.35109827 L95.7228902,6.67248555 L103.920116,6.67248555 L103.920116,8.35109827 L100.912601,8.35109827 L100.912601,16.7861272 L98.7304046,16.7861272 Z M50.6241618,32.1734104 L50.6241618,22.0737572 L57.1427746,22.0737572 L57.1427746,23.6964162 L52.7923699,23.6964162 L52.7923699,26.1863584 L56.8490173,26.1863584 L56.8490173,27.8649711 L52.7923699,27.8649711 L52.7923699,32.1734104 L50.6241618,32.1734104 Z M58.0240462,27.2634682 C58.0240462,24.5776879 59.2410405,21.8499422 62.8780347,21.8499422 C63.9551445,21.8499422 65.4379191,22.1017341 66.4310983,23.2208092 C67.5082081,24.4517919 67.7180347,26.0324855 67.7180347,27.0256647 C67.7180347,28.4944509 67.2704046,30.0611561 66.4450867,30.9843931 C65.3260116,32.2433526 63.6893642,32.4252023 62.8500578,32.4252023 C61.5211561,32.4252023 60.1922543,32.0055491 59.2690173,31.0403468 C58.1639306,29.8653179 58.0240462,28.1867052 58.0240462,27.2634682 Z M60.2901734,27.193526 C60.2901734,28.1587283 60.4440462,29.2358382 61.0455491,30.0191908 C61.3532948,30.4388439 61.8708671,30.8305202 62.8780347,30.8305202 C63.7593064,30.8305202 64.3608092,30.5227746 64.766474,29.8932948 C65.1021965,29.389711 65.4519075,28.6063584 65.4519075,26.9976879 C65.4519075,26.5080925 65.4099422,25.8086705 65.2001156,25.1931792 C64.7804624,23.9482081 63.9271676,23.402659 62.8920231,23.402659 C62.0806936,23.402659 61.4372254,23.7383815 61.0315607,24.2559538 C60.4580347,24.9553757 60.2901734,26.046474 60.2901734,27.193526 Z M69.1588439,32.1734104 L69.1588439,22.0597688 L73.0336416,22.0597688 C74.1527168,22.0457803 75.2857803,22.0457803 76.0971098,22.7452023 C76.7265896,23.2907514 76.9783815,24.0321387 76.9783815,24.6895954 C76.9783815,26.5780347 75.3557225,27.0256647 74.8661272,27.1655491 C76.3908671,27.3054335 76.5027746,28.1727168 76.6846243,29.4876301 C76.8384971,30.6766474 76.9224277,31.1662428 76.9923699,31.4460116 C77.1042775,31.8936416 77.1882081,32.0055491 77.3001156,32.1734104 L74.9080925,32.1734104 C74.8101734,31.6138728 74.5024277,29.0539884 74.3625434,28.6623121 C74.1667052,28.0887861 73.6351445,28.0887861 73.2714451,28.0887861 L71.3690173,28.0887861 L71.3690173,32.1734104 L69.1588439,32.1734104 Z M71.2990751,23.6544509 L71.2990751,26.4801156 L73.0476301,26.4801156 C73.299422,26.4801156 73.8030058,26.4801156 74.1527168,26.2003468 C74.3065896,26.0884393 74.7122543,25.7387283 74.7122543,25.0253179 C74.7122543,24.3398844 74.3765318,24.0181503 74.1806936,23.8922543 C73.8449711,23.6544509 73.4393064,23.6544509 72.7538728,23.6544509 L71.2990751,23.6544509 Z M77.8596532,22.1017341 L80.0978035,22.1017341 L81.6645087,29.6694798 L83.6368786,22.1017341 L86.0848555,22.1017341 L87.8613873,29.6694798 L89.4980347,22.1017341 L91.5683237,22.1017341 L88.9944509,32.2013873 L86.5884393,32.2013873 L84.7559538,24.4797688 L82.7835838,32.2013873 L80.3216185,32.2013873 L77.8596532,22.1017341 Z M95.3591908,22.0597688 L97.9330636,22.0597688 L101.444162,32.1734104 L99.2619653,32.1734104 L98.5345665,29.9912139 L94.5338728,29.9912139 L93.7784971,32.1734104 L91.7082081,32.1734104 L95.3591908,22.0597688 Z M95.0934104,28.3545665 L97.9890173,28.3545665 L96.5901734,24.0461272 L95.0934104,28.3545665 Z M102.577225,32.1734104 L102.577225,22.0597688 L106.452023,22.0597688 C107.571098,22.0457803 108.704162,22.0457803 109.515491,22.7452023 C110.144971,23.2907514 110.396763,24.0321387 110.396763,24.6895954 C110.396763,26.5780347 108.774104,27.0256647 108.284509,27.1655491 C109.809249,27.3054335 109.921156,28.1727168 110.103006,29.4876301 C110.256879,30.6766474 110.340809,31.1662428 110.410751,31.4460116 C110.522659,31.8936416 110.60659,32.0055491 110.718497,32.1734104 L108.326474,32.1734104 C108.228555,31.6138728 107.920809,29.0539884 107.780925,28.6623121 C107.585087,28.0887861 107.053526,28.0887861 106.689827,28.0887861 L104.787399,28.0887861 L104.787399,32.1734104 L102.577225,32.1734104 Z M104.717457,23.6544509 L104.717457,26.4801156 L106.466012,26.4801156 C106.717803,26.4801156 107.221387,26.4801156 107.571098,26.2003468 C107.724971,26.0884393 108.130636,25.7387283 108.130636,25.0253179 C108.130636,24.3398844 107.794913,24.0181503 107.599075,23.8922543 C107.263353,23.6544509 106.857688,23.6544509 106.172254,23.6544509 L104.717457,23.6544509 Z M111.977457,32.1734104 L111.977457,22.0877457 L115.320694,22.1017341 C115.880231,22.1017341 117.586821,22.1157225 118.803815,23.0109827 C120.076763,23.9482081 120.524393,25.5428902 120.524393,26.9836994 C120.524393,30.0891329 118.859769,31.7117919 116.943353,32.0615029 C116.565665,32.1314451 116.146012,32.1734104 115.124855,32.1734104 L111.977457,32.1734104 Z M114.173642,23.7243931 L114.173642,30.5087861 C114.411445,30.5227746 114.775145,30.536763 115.026936,30.536763 C115.950173,30.536763 116.747514,30.4668208 117.376994,29.837341 C118.230289,28.9840462 118.286243,27.4732948 118.286243,26.9836994 C118.286243,25.5568786 117.796647,24.2419653 116.439769,23.8642775 C115.992139,23.7383815 115.418613,23.6684393 114.173642,23.7243931 Z" id="FORESTFORWARD" fill="#004F49"></path>
            </g>
        </g>
    </g>
</svg>