<svg aria-hidden="true" style="position: absolute; width: 0; height: 0; overflow: hidden;" version="1.1" xmlns="http://www.w3.org/2000/svg" xmlns:xlink="http://www.w3.org/1999/xlink">
<defs>
<symbol id="icon-arrow-left" viewBox="0 0 20 32">
<title>arrow-left</title>
<path d="M1 16l14.5-16 3.5 3.222-11.574 12.778 11.574 12.778-3.5 3.222-13.038-14.388z"></path>
</symbol>
<symbol id="icon-expand" viewBox="0 0 51 32">
<title>expand</title>
<path d="M25.6 30.4l25.6-23.2-5.155-5.6-20.445 18.518-20.445-18.518-5.155 5.6 23.021 20.861z"></path>
</symbol>
<symbol id="icon-zoomin" viewBox="0 0 32 32">
<title>zoomin</title>
<path d="M31 12h-11v-11c0-0.552-0.448-1-1-1h-6c-0.552 0-1 0.448-1 1v11h-11c-0.552 0-1 0.448-1 1v6c0 0.552 0.448 1 1 1h11v11c0 0.552 0.448 1 1 1h6c0.552 0 1-0.448 1-1v-11h11c0.552 0 1-0.448 1-1v-6c0-0.552-0.448-1-1-1z"></path>
</symbol>
<symbol id="icon-zoomout" viewBox="0 0 32 32">
<title>zoomout</title>
<path d="M0 13v6c0 0.552 0.448 1 1 1h30c0.552 0 1-0.448 1-1v-6c0-0.552-0.448-1-1-1h-30c-0.552 0-1 0.448-1 1z"></path>
</symbol>
<symbol id="icon-stack" viewBox="0 0 32 32">
<title>stack</title>
<path d="M32 10l-16-8-16 8 16 8 16-8zM16 4.655l10.689 5.345-10.689 5.345-10.689-5.345 10.689-5.345zM28.795 14.398l3.205 1.602-16 8-16-8 3.205-1.602 12.795 6.398zM28.795 20.398l3.205 1.602-16 8-16-8 3.205-1.602 12.795 6.398z"></path>
</symbol>
<symbol id="icon-collapsed" viewBox="0 0 26 32">
<title>collapsed</title>
<path d="M12.8 0l1.289 1.17 11.511 10.43-2.578 2.8-10.222-9.259-10.222 9.259-2.578-2.8 11.511-10.43z"></path>
<path d="M12.8 10.4l1.289 1.17 11.511 10.43-2.578 2.8-10.222-9.259-10.222 9.259-2.578-2.8 11.511-10.43z"></path>
<path d="M10.8 12.174v19.826h4v-19.826z"></path>
</symbol>
<symbol id="icon-about" viewBox="0 0 8 32">
<title>about</title>
<path d="M8 4c0 2.21-1.79 4-4 4s-4-1.79-4-4c0-2.21 1.79-4 4-4s4 1.79 4 4z"></path>
<path d="M8 16c0 2.21-1.79 4-4 4s-4-1.79-4-4c0-2.21 1.79-4 4-4s4 1.79 4 4z"></path>
<path d="M8 28c0 2.21-1.79 4-4 4s-4-1.79-4-4c0-2.21 1.79-4 4-4s4 1.79 4 4z"></path>
</symbol>
<symbol id="icon-close" viewBox="0 0 32 32">
<title>close</title>
<path d="M27.826 0l4.174 4.174-11.828 11.826 11.828 11.826-4.174 4.174-11.826-11.828-11.826 11.828-4.174-4.174 11.826-11.826-11.826-11.826 4.174-4.174 11.826 11.826z"></path>
</symbol>
<symbol id="icon-download" viewBox="0 0 32 32">
<title>download</title>
<path d="M18.5 0.074v16.3l10.278-9.152 3.222 3.442-16 14.262-16-14.262 3.222-3.442 10.278 9.156v-16.304z"></path>
<path d="M0 31.926h32v-5h-32z"></path>
</symbol>
<symbol id="icon-dropdown" viewBox="0 0 32 32">
<title>dropdown</title>
<path d="M16 26.667l-16-21.333h32z"></path>
</symbol>
<symbol id="icon-menu" viewBox="0 0 32 32">
<title>menu</title>
<path d="M0 24v8h32v-8z"></path>
<path d="M0 0v8h32v-8z"></path>
</symbol>
</defs>
</svg>
