<?xml version="1.0" encoding="UTF-8"?>
<svg width="223px" height="174px" viewBox="0 0 223 174" version="1.1" xmlns="http://www.w3.org/2000/svg" xmlns:xlink="http://www.w3.org/1999/xlink">
    <!-- Generator: sketchtool 57.1 (101010) - https://sketch.com -->
    <title>D2EDAA6D-EA32-4F54-B3CD-4C89236965F7</title>
    <desc>Created with sketchtool.</desc>
    <defs>
        <path d="M42.4366521,144.849821 C41.745372,144.09555 39.9351207,144.257179 39.6684548,143.557821 C39.4028146,142.859498 37.7515372,140.333518 36.8469243,140.384287 C35.9412859,140.439199 34.7710327,140.49204 33.7053947,139.685964 C32.6407823,138.877816 31.9495022,138.826012 31.2038633,139.309865 C30.4582244,139.794753 32.0018098,139.900434 31.9495022,140.439199 C31.8961691,140.975892 32.4274496,141.300187 33.0674478,141.192434 C33.7053947,141.085717 34.0777014,142.430558 34.7176996,142.483399 C35.3566721,142.538311 35.5689792,143.557821 36.3146181,143.557821 C37.0602571,143.557821 37.219231,144.419845 37.5925633,144.903697 C37.9658955,145.389622 38.8171752,144.957574 38.8171752,145.442462 C38.8171752,145.875547 39.6684548,146.267188 39.8838388,146.811133 C41.3412706,146.986232 42.5904979,147.125067 43.6766487,146.821494 C43.6879307,146.48373 43.7730586,146.109702 43.9289556,145.817526 C44.3002366,145.119203 43.1289579,145.603056 42.4366521,144.849821 Z M40.4087329,60.076945 C42.3143834,60.5136565 42.5203446,64 43.7958763,64 C44.6441916,64 44.0079551,62.9103208 45.3844282,62.9103208 C46.7609013,62.9103208 46.4427831,62.1471255 47.7132168,62.2563034 C48.98467,62.3654812 50.0430249,61.9287697 50.0430249,60.4034288 C50.0430249,58.8770382 50.99636,58.3321986 52.265774,58.004665 C53.5362077,57.6792309 52.3707938,56.0436624 54.1714245,55.6069509 C55.9710357,55.1712891 60.9477506,52.9919308 61.793007,52.3379133 C62.6403026,51.6838959 60.7346521,50.8125724 58.8290016,49.6126656 C56.9233511,48.4138086 55.4418582,48.0862749 53.9593457,49.067826 C52.4768332,50.0493771 53.6412275,47.9781468 52.4768332,48.5229864 C51.312439,49.067826 48.1363548,47.6506132 47.7132168,47.1057736 C47.2900787,46.5598843 41.5731272,48.3046307 40.1966541,48.3046307 C38.820181,48.3046307 40.3026935,49.8310214 41.2560286,50.5931669 C42.208344,51.357412 38.92724,53.7540763 39.5624569,54.2999657 C40.1976737,54.8448053 38.92724,56.2609683 37.4447276,58.004665 C35.9622151,59.7504612 38.504102,59.6412833 40.4087329,60.076945 Z M94.5629303,68.4308611 C95.2078407,67.6967261 97.8897996,69.9001423 97.9972846,68.3267069 C98.1047697,66.7512491 94.9928705,66.0161029 93.7051169,65.1768026 C92.4183967,64.3354798 91.8820049,64.7561412 89.8418558,63.2858487 C87.8027403,61.8165675 90.3782476,61.0814213 88.8755238,59.9266249 C87.3738335,58.7718284 86.8374418,55.6219241 87.9091918,54.5733042 C88.9819754,53.5216507 90.1632775,51.9482154 88.231647,51.2130691 C86.3000165,50.4789341 83.1881173,51.8440612 83.5105725,52.2627002 C83.8319942,52.6833616 86.5139531,54.1526428 86.5139531,54.7836349 C86.5139531,55.4126046 84.0459308,52.9988576 83.1870838,53.5226619 C82.3292704,54.0484887 81.3639719,52.4740421 80.6115765,53.5226619 C79.8612481,54.5743154 81.5779085,58.2480241 82.2207518,59.296644 C82.8656622,60.3472862 81.5779085,60.3472862 80.7190615,60.5566057 C79.8612481,60.7679476 79.753763,57.617032 78.8949161,56.4632468 C78.0360691,55.3084504 74.6027483,53.9423121 74.3877782,54.7836349 C74.1728081,55.6229353 76.5333453,55.6229353 76.2119237,56.7777317 C75.890502,57.9335393 74.6027483,56.0425855 73.4214462,56.9880624 C72.2411776,57.9335393 72.4561477,57.3035584 72.6700843,56.3580815 C72.8850544,55.4126046 70.9534239,54.3639847 68.8078568,54.5733042 C66.6612561,54.7836349 67.8415247,56.2529161 67.1986814,56.7777317 C66.5548046,57.3035584 63.3354204,56.4632468 65.3735024,56.0425855 C67.412618,55.6219241 66.5548046,54.4681389 65.8034427,53.3133425 C65.0520808,52.158546 63.0139987,53.5226619 59.6871295,54.6774584 C56.3612937,55.833266 54.8585699,57.0922165 55.2874767,57.1973819 C55.7174169,57.3025472 55.8238684,57.8263515 54.5361148,58.8769938 C53.2483611,59.9266249 54.5361148,60.8721018 55.7174169,60.8721018 C56.8976855,60.8721018 55.8579743,61.7973546 56.6827154,62.0268982 C57.4340773,62.2372289 61.2973383,60.5566057 62.3701219,61.291752 C63.443939,62.0268982 56.0398721,62.4465484 56.0398721,63.7065101 C56.0398721,64.9664719 60.1170697,65.7016181 63.1225173,65.1768026 C66.1269314,64.6509758 71.3843976,65.5964527 71.3843976,66.331599 C71.3843976,67.0667452 67.8435918,66.8564145 65.1616329,66.7512491 C62.479674,66.647095 57.865051,67.4863954 58.0789876,68.3267069 C58.318762,69.2661166 58.6153794,69.2721839 61.4048234,70.5301232 C64.1953008,71.7910962 67.0911964,69.8991311 66.9847448,71.6859308 C66.8772598,73.4717193 68.4874686,73.8913695 72.2422111,73.9955236 C75.997987,74.100689 77.7146474,72.3169229 79.5398264,72.4220882 C81.3639719,72.5262424 82.2217853,72.2117576 83.0806323,70.952807 C83.9384457,69.691834 84.6908411,70.4269803 84.9047777,71.0569611 C85.1197478,71.686942 87.4802851,71.5807655 88.0166769,72.105581 C89.3850443,73.445428 93.91802,73.0520691 95.6346804,72.2107463 C97.3513408,71.371446 94.8833185,69.060842 94.0244715,70.110473 C93.1666581,71.1611153 92.4163297,70.5301232 92.2013596,70.0063189 C91.9884565,69.4804921 93.920087,69.1670185 94.5629303,68.4308611 Z M53.1346735,42.9792222 C55.1214414,43.221524 57.1060844,41.2866043 56.9955904,40.1974111 C56.8861588,39.1105477 52.1497891,42.8604011 53.1346735,42.9792222 Z M45.1433997,39.1848373 C45.8945116,39.5058865 45.1433997,41.001029 46.0009277,40.5739924 C46.8594889,40.1459269 47.0743875,40.0399395 47.7180501,40.2529433 C48.8772626,40.6388197 49.1117914,39.6118739 49.6490378,39.0778209 C50.1852511,38.542739 49.9713857,41 51.365127,41 C52.5450029,41 52.3311375,38.4357226 53.4035641,39.1838083 C54.4770238,39.9318941 54.7983385,38.8637881 55.0132371,38.1157024 C55.2281357,37.3676166 55.2281357,36.0865069 56.4080116,35.8724741 C57.5878875,35.6584413 56.6229102,37.0475965 57.1591235,38.009715 C57.939164,39.4101892 59.3039767,38.1167314 59.4124591,37.474633 C59.5199084,36.8345927 61.4508962,37.2616292 61.3424137,36.5135435 C61.2349644,35.7654577 61.8796602,35.551425 61.3424137,34.6963228 C60.8072336,33.8422497 62.202008,34.0552535 62.8446375,33.4141841 C63.4893332,32.7731147 61.9871095,33.3071677 60.9136497,32.3460782 C59.8412231,31.3839596 59.4124591,32.6660983 59.4124591,33.3071677 C59.4124591,33.9482371 57.3729889,33.4141841 56.1941462,32.9861185 C55.0142703,32.5590819 53.5120465,34.3752736 51.7959574,35.2303758 C50.0798682,36.0854779 49.9734521,37.5806204 48.363779,37.473604 C46.7520396,37.3686456 44.393321,38.8648171 45.1433997,39.1848373 Z M61.6311817,38.6719657 C60.1122021,38.7783581 60.2198793,40.2658062 61.9583948,40.2658062 C63.693774,40.2658062 64.2373868,40.7967454 61.7409497,40.690353 C59.2445125,40.5839605 58.1583323,42.7087402 59.894757,42.2841935 C61.6311817,41.8586237 63.693774,41.8586237 62.3911942,42.2841935 C61.0875689,42.7087402 57.5404955,43.0013194 58.0496098,43.6642261 C58.3757774,44.0887729 59.7860344,43.9834034 61.1973369,44.5143426 C62.6075939,45.0463048 63.4763289,45.3634361 64.5625091,44.1951653 C65.6465984,43.0268945 67.0589463,41.8596467 66.5163789,43.4524643 C65.9727661,45.0463048 68.2528036,43.878034 71.1830856,43.7706186 C74.114413,43.6642261 70.6405182,45.4708515 67.6015136,45.6826134 C64.5625091,45.8953982 65.1050765,47.3818233 67.4927911,47.9127625 C69.8805057,48.4437017 74.983148,46.4253144 76.1759599,45.2570436 C77.3698172,44.0887729 78.454952,45.8943752 79.6488093,45.0452818 C80.843712,44.1941423 83.1237495,45.1516742 85.1852964,44.7261045 C87.2478888,44.3015577 87.5730111,40.4775681 86.0540315,39.8402365 C84.5350519,39.2029049 84.5350519,40.5839605 83.3411946,40.7967454 C82.1473373,41.0095303 81.495002,39.5220822 80.5196352,38.5665963 C79.5421776,37.6100874 80.1924221,35.804485 78.7821651,36.0172698 C77.3823621,36.2280087 74.3318581,38.4602038 76.1770053,38.6719657 C78.0221526,38.8847506 77.3708626,39.8412595 76.3944505,40.2658062 C75.4180383,40.690353 78.6744879,41.433054 78.2395977,42.0714086 C77.8057529,42.7097632 72.8128785,42.177801 72.5964788,41.1159227 C72.3790337,40.0530214 68.4723395,38.1410265 66.8446374,38.5665963 C65.2158898,38.991143 65.8671798,37.2919331 64.2394776,37.1855406 C62.6086393,37.0791482 63.1512067,38.5665963 61.6311817,38.6719657 Z M66.9556659,31.2229041 C67.4452887,29.6109212 63.7113251,29.8774288 64.017929,30.4169127 C64.7037783,31.6265467 66.4650997,32.834887 66.9556659,31.2229041 Z M75.2968646,30.9879775 C76.6331054,30.7808881 76.016455,29.7464364 73.8576838,30.0580662 C71.6999023,30.3677048 68,30.3657135 68,31.9188845 C68,33.15943 68.7195904,33.7797027 71.0822621,33.9867922 C73.4459236,34.192886 75.5017549,31.9188845 74.3713941,31.9188845 C73.2410334,31.9188845 73.9606238,31.195067 75.2968646,30.9879775 Z M71.1069097,28.6806862 C72.1682494,29.1453457 73.2285677,27.6374364 73.9701776,28.3333086 C74.712809,29.0291808 78,29.6088881 78,27.7524843 C78,25.8971974 73.8639415,25.6648677 72.8036232,26.3607399 C71.7422834,27.0566121 66.864615,27.2889418 68.2436417,28.4483565 C69.0894447,29.1621002 70.0465914,28.2182607 71.1069097,28.6806862 Z M88.1499003,25.7332036 C89.4502308,24.9164307 91.8348657,26.243318 91.4007265,27.1613275 C90.9665872,28.0803198 87.2169184,26.9765461 87.4997351,27.7746443 C87.6082699,28.0803198 88.0424091,29.3059705 90.6420264,28.5914171 C93.2426873,27.8768638 95.4102526,28.3869782 97.1426351,29.7138655 C98.8771047,31.0407528 100.501996,31.5508673 101.693792,30.22398 C102.885587,28.8970927 100.176392,28.6936366 100.718022,27.6734077 C101.260696,26.6531788 98.9845959,26.039862 97.7928003,26.039862 C96.6010046,26.039862 96.167909,23.9994042 95.1921394,24.4072992 C94.2174134,24.816177 93.5672481,25.5297475 93.5672481,24.2028602 C93.5672481,22.8769558 87.9328307,22.7737534 86.5239655,23.2848508 C85.1161438,23.7939823 86.8495699,26.5489936 88.1499003,25.7332036 Z M89.8797176,34.6736768 C90.7902593,33.4851964 86.2397424,29.686406 86.0118331,31.4674107 C85.7839237,33.2495593 88.9121986,35.9365087 89.8797176,34.6736768 Z M102.936893,20.5748697 C103.580742,19.3534744 99.0596267,18.397302 100.179057,19.456236 C100.82202,20.0669337 102.293044,21.7933289 102.936893,20.5748697 Z M91.8260674,44.6166289 C92.7209417,43.8254485 89.9095346,42.1450234 89.1426753,43.5283989 C88.3745851,44.9127264 90.9151912,45.4211383 91.8260674,44.6166289 Z M102.767621,37.1723791 C102.662736,38.2995461 100.254425,36.9465113 98.3695286,36.1570601 C96.4846319,35.3686947 97.6373537,37.7359626 99.1037206,39.0879114 C100.569079,40.4409462 98.3695286,39.7655147 96.3807559,38.2995461 C94.3909746,36.8335775 94.5997353,39.3148651 95.5426879,40.1032305 C96.4856404,40.8926817 95.3339272,42.0187628 94.0763209,40.2150784 C92.8197231,38.41248 92.1924328,36.4947758 90.2026515,36.3829278 C88.2138788,36.269994 89.1195167,38.4646033 89.8890063,39.539647 C90.935835,41.0045297 91.9836721,41.3433313 93.6587997,42.3575645 C95.3349357,43.3728835 98.0568919,41.9058289 99.3124812,42.2446306 C100.568071,42.5834322 97.9499904,44.2741827 98.7890669,45.4013497 C99.6271349,46.5285167 101.930561,45.7390654 103.709565,45.6261316 C105.490586,45.5131977 104.652518,44.3860307 105.699346,43.5965794 C106.747183,42.8071282 104.652518,42.921148 105.490586,41.0034438 C106.327645,39.0879114 102.871497,36.0441262 102.767621,37.1723791 Z M108.225993,31 C109.834479,31 111.119823,30.7988408 112.513569,30.2969099 C113.907315,29.794979 111.763011,29.794979 112.727277,28.5909251 C113.692575,27.3859041 110.369265,27.2843574 110.154525,27.6866758 C109.939785,28.0889942 105.760611,25.2766338 105.116391,26.179916 C104.475267,27.0831982 106.618539,31 108.225993,31 Z M115.993614,31.2003355 C115.785262,30.5763206 107.90094,31.5268666 109.130017,32.4493669 C111.209531,34.0089034 116.202968,31.8243504 115.993614,31.2003355 Z M115.012745,46.9918718 C116.844399,46.8730296 115.928082,44.2619301 113.893564,42.4827258 C111.858066,40.7035215 107.286281,44.3613462 108.094796,45.0926826 C109.008173,45.923435 113.18011,47.1095712 115.012745,46.9918718 Z M101.615553,61.5256796 C103.921265,63.0905262 103.187354,60.2734003 105.808032,60.3769194 C108.42871,60.4824485 108.532689,56.2039951 108.952643,54.6391485 C109.371588,53.0732968 106.855899,53.1778209 107.485831,54.3255761 C108.113744,55.4733313 107.380842,56.6210865 107.169856,55.2642831 C106.959878,53.9084847 104.969132,55.160764 104.235221,54.1175329 C103.501311,53.0732968 106.540933,52.9697777 107.275854,51.6129743 C108.009765,50.257176 104.864144,50.4652191 105.599064,49.420983 C106.332975,48.377752 100.986631,49.5255071 102.558432,50.1516468 C104.131242,50.7787915 102.66342,51.6129743 101.195599,50.5687382 C99.7287863,49.5255071 95.6645148,51.2712609 97.1081085,52.4481622 C98.2609644,53.3858641 101.719532,51.8210175 99.7287863,54.5346244 C97.7370308,57.2482312 96.8981312,53.8039606 95.0123739,54.1175329 C93.125607,54.4311053 93.9645066,56.7256106 96.7941521,57.5607985 C99.6237977,58.3949813 99.3098413,59.960833 101.615553,61.5256796 Z M119.199698,45.1261304 C119.958851,47.3347407 120.827648,45.7886072 122.01911,46.6712006 C123.211617,47.5548574 125.054677,48.1067441 126.03103,47.2230873 C127.006337,46.3404939 127.440736,45.6780171 127.76549,46.4500205 C128.294913,47.7058553 130.693502,47.8855641 135.896884,47.9961541 C141.100266,48.1067441 139.800203,45.7886072 141.317465,46.6712006 C142.834726,47.5548574 146.305736,47.5548574 147.821953,47.2230873 C149.340259,46.8923806 150.098367,44.4636537 149.989768,43.2492902 C149.881168,42.0338634 138.280853,41.0406799 136.220594,42.2550434 C134.160335,43.4694069 130.907568,41.7020933 129.281707,42.5857501 C127.654802,43.4694069 128.1978,41.4819766 125.269788,41.3703232 C122.342821,41.2607966 125.486987,39.7146631 126.028941,39.0521863 C126.571939,38.3907729 121.583668,36.6245227 119.524453,37.0658194 C117.465238,37.5071162 116.271686,36.4033427 114.320027,35.5196859 C112.368367,34.6360291 107.071005,34.8465755 108.141337,36.4033427 C108.90049,37.5071162 115.187779,39.8252531 115.838332,38.722543 C116.488886,37.6177062 118.115791,40.0464331 119.091099,41.2607966 C120.067451,42.4762234 118.440545,42.9175201 119.199698,45.1261304 Z M124.275011,32.227919 C122.238549,31.3627423 119.684527,33.1921052 121.786365,33.8611135 C123.59728,34.4366642 126.311473,33.0921704 124.275011,32.227919 Z M109.00536,19.9950475 C110.603188,20.7676234 109.655554,21.7738859 111.389057,22.5051637 C113.123603,23.2374489 118.108075,21.5633665 118.54119,22.7146758 C118.974304,23.8649779 113.448178,23.969734 114.206912,24.7020191 C114.965645,25.4343042 118.108075,26.5846062 117.673917,27.2121353 C117.240802,27.8396644 122.874424,29.6164882 123.416078,28.7804543 C123.958776,27.9434131 125.4752,28.151918 126.883083,28.6756983 C128.292011,29.1984713 128.40055,25.4332969 129.376363,26.060826 C130.352176,26.6893623 130.242592,24.7010118 131.868599,24.0734827 C133.493562,23.4459537 135.835512,23.4389028 135.986841,22.7136686 C136.095381,22.1908956 135.552683,21.4576032 133.602101,21.6681226 C131.652563,21.8766274 130.353219,21.1443423 131.219449,20.0998036 C132.086722,19.0532503 129.051788,18.7389821 130.135096,17.9029482 C131.219449,17.0659071 128.077019,16.2298732 128.40055,17.483924 C128.726169,18.7389821 126.451012,17.5886801 126.125393,16.438378 C125.800818,15.2880759 121.358001,14.8690517 118.43265,12.3599428 C115.507299,9.84982654 112.473409,11.5229016 114.206912,11.8361625 C115.941458,12.1504307 115.831874,12.9874718 114.423991,12.8827158 C113.015063,12.7779597 110.522827,12.9874718 112.799028,13.8235057 C115.073141,14.6605469 112.581949,14.9738078 110.739907,14.9738078 C108.896821,14.9738078 108.789325,17.2754192 111.173021,17.5886801 C113.557761,17.9029482 111.823215,19.2617551 109.872634,18.7389821 C107.922052,18.2172164 107.271858,19.1590136 109.00536,19.9950475 Z M121.726296,9.12246524 C123.237604,8.15021159 124.424614,8.79907392 123.130544,9.4468964 C121.834395,10.093679 122.265752,10.5262539 124.101357,10.4181102 C125.935922,10.3110063 123.345703,10.9588288 123.345703,12.0381863 C123.345703,13.1185837 125.503526,12.4707612 125.611625,13.5501187 C125.718685,14.6294763 130.358629,15.0620511 131.762877,13.7664062 C133.165046,12.4707612 132.62559,14.0897975 132.518531,14.9539074 C132.410432,15.8169775 139.101139,16.5729437 139.425436,15.494626 C139.749733,14.4142287 140.720546,14.8468035 142.015656,15.1701949 C143.310765,15.494626 149.678215,13.9826936 149.785275,12.6870487 C149.893374,11.3914037 151.836038,13.3348711 149.785275,14.7386598 C147.734511,16.1424485 143.634023,15.9272009 141.799458,16.4668797 C139.964892,17.0065584 142.986468,18.3022034 144.821034,19.7059921 C146.655599,21.1097808 142.447012,20.3538146 140.720546,18.517451 C138.994079,16.6831671 135.10875,16.6831671 133.057987,16.790271 C131.008262,16.8984147 131.655817,20.6772059 133.166086,20.6772059 C134.677393,20.6772059 136.188701,21.2168846 137.69897,23.5908473 C139.210278,25.9668896 142.448052,25.426171 142.448052,26.5055285 C142.448052,27.584886 138.238425,25.6424584 135.864404,25.2098836 C133.491422,24.7773087 129.714192,26.2892411 129.606093,28.0174609 C129.497994,29.7446409 133.059026,29.5293933 135.433047,28.1256046 C137.808108,26.7228558 136.081642,28.5581795 134.893592,29.637537 C133.705541,30.7179344 137.69897,31.5810045 137.69897,32.8766495 C137.69897,34.1722944 134.785492,33.7397195 134.461195,32.5522183 C134.136898,31.364717 133.057987,30.1772158 130.252608,30.3924634 C127.446191,30.6087508 128.201845,32.5522183 129.929351,32.7685057 C131.655817,32.9837533 131.763916,34.2793983 129.820212,34.2793983 C127.877548,34.2793983 123.495378,35.4991347 124.857011,36.7635843 C126.367279,38.167373 131.870976,36.7635843 132.842828,37.6276943 C133.81364,38.4918042 136.511959,38.8151955 137.158474,37.8439817 C137.807069,36.8717281 139.964892,37.3043029 142.122715,37.3043029 C144.280539,37.3043029 144.821034,37.6276943 145.791846,38.4918042 C146.762659,39.3559141 148.490165,39.0314829 149.677176,38.167373 C150.864186,37.3043029 150.864186,37.3043029 152.374455,37.3043029 C153.884723,37.3043029 154.20902,36.3320493 153.454406,35.1455879 C152.698752,33.9570468 150.756087,36.008658 150.539889,35.1455879 C150.27276,34.0766288 148.490165,33.7407594 145.467549,34.1722944 C142.447012,34.6048693 143.741083,32.228827 145.575648,32.7695456 C147.410214,33.3092243 149.892334,33.0939767 151.943098,32.5532581 C153.993862,32.0135794 152.374455,31.0413257 152.374455,30.1782556 C152.374455,29.3141457 154.964674,29.8538245 156.907339,29.8538245 C158.848964,29.8538245 161.655382,26.7238956 161.763481,24.8885719 C161.87158,23.0522084 157.446795,23.4847832 155.288971,23.4847832 C153.130109,23.4847832 156.691141,21.8636673 160.792668,22.0809946 C164.894195,22.297282 163.05859,20.4619583 163.814244,19.8130959 C164.569898,19.1652735 166.512563,20.5690621 168.562287,20.1375271 C170.613051,19.7049522 169.209842,17.9777722 170.613051,17.9777722 C171.60777,17.9777722 173.850825,16.4668797 178.27561,13.9837335 C182.699356,11.5016271 186.153328,11.9321223 186.368487,10.5293735 C186.584685,9.12558477 180.217235,10.5293735 179.137284,10.0967986 C178.058373,9.66526353 183.562069,8.47776229 184.858219,8.80219345 C186.152289,9.12558477 187.879795,8.80219345 192.30458,6.64139872 C196.729365,4.48268368 194.7867,3.94300492 192.953174,4.26743608 C191.117569,4.5908274 189.066806,3.94196507 189.175944,2.75550368 C189.283004,1.56696259 186.476586,2.64735996 186.368487,1.99953747 C186.260388,1.35067515 183.670169,1.67510631 180.86479,2.75550368 C178.058373,3.8348612 180.648592,1.67510631 181.836642,1.24357127 C183.023653,0.812036232 174.713539,1.24357127 173.311369,0.272357472 C171.908161,-0.699896172 170.288754,1.89139375 168.994683,0.595748791 C167.699574,-0.699896172 164.35474,0.380501192 164.786096,1.35171499 C165.218493,2.32396864 164.246641,2.32396864 162.951531,1.24357127 C161.656421,0.164213751 159.174301,1.35171499 156.908378,1.02728383 C154.642456,0.702852668 155.612229,2.86260755 153.131148,1.78325003 C150.650067,0.702852668 147.952788,1.24253143 148.707402,1.56696259 C149.463056,1.89139375 148.491204,2.53921623 147.412293,2.21582492 C146.332342,1.89139375 145.361529,2.32396864 145.900985,3.40228631 C146.44148,4.48268368 141.907557,3.078895 141.907557,4.26743608 C141.907557,5.45389748 140.289189,6.10171996 138.994079,5.02236244 C137.69897,3.94196507 133.598482,3.61857376 134.785492,4.58978756 C135.972503,5.5620412 131.115322,5.02236244 132.410432,5.99357624 C133.705541,6.96479004 130.792064,7.72075624 130.792064,7.18107748 C130.792064,6.64139872 128.093746,5.66914508 127.014834,6.64035888 C125.935922,7.61261252 125.612665,8.80115361 125.072169,8.15229128 C124.532714,7.50550864 122.158692,7.72075624 119.89173,8.58382632 C117.625808,9.4468964 120.214988,10.0926392 121.726296,9.12246524 Z M148.882334,101.991798 C149.544286,101.874381 150.868191,98.8848675 149.166418,99.003435 C147.464644,99.1243049 147.853439,102.178282 148.882334,101.991798 Z M139.484701,99.77281 C141.379945,100.809074 144.223381,98.0114608 143.986048,97.1836466 C143.749856,96.3558324 137.194661,98.5231098 139.484701,99.77281 Z M146.991352,93.6504184 C147.200411,92.5339229 143.5479,92.0853886 143.755955,90.8591797 C143.965014,89.6286684 140.312503,88.6251132 139.164686,87.9550008 C138.016869,87.2838128 136.242879,86.9492944 136.242879,85.6101453 C136.242879,84.2709961 133.738185,85.2734756 133.633655,87.2838128 C133.529126,89.2963012 132.485838,88.8477669 133.007482,90.7451638 C133.529126,92.644712 130.710843,93.0921706 131.024432,94.097877 C131.338021,95.1025078 132.693893,93.9849368 133.94624,93.9849368 C135.199591,93.9849368 133.607523,95.8543675 135.199591,95.9941983 C136.451938,96.1071386 138.643043,94.5442601 139.164686,93.6504184 C139.68633,92.755501 140.730623,92.4209826 142.191024,93.5374781 C143.651425,94.6550492 146.782292,94.7679894 146.991352,93.6504184 Z M181.973553,84.320203 C183.257256,84.4266574 183.47155,86.0224492 185.503221,87.7216247 C187.534892,89.4208001 187.749186,88.2538965 188.069597,87.0849457 C188.391038,85.9139477 190.635973,86.8710134 190.529856,85.7020625 C190.422709,84.5331117 192.349294,83.1522758 193.631967,82.6210275 C194.91567,82.0887557 192.562558,80.8133505 190.851297,80.9187813 C189.139006,81.0262592 188.818595,79.8562848 188.818595,79.1121279 C188.818595,78.3689945 185.609338,76.5623411 184.539929,76.8817042 C183.47052,77.2000437 181.652112,75.4998446 180.261262,75.3933903 C178.870412,75.2879595 176.837711,74.2244394 177.052004,72.7361255 C177.266298,71.2488352 179.832674,73.161943 180.367379,71.9919686 C180.902083,70.8240413 177.692826,71.4617439 177.585679,70.610109 C177.478532,69.7605213 178.335708,70.0788608 178.976529,69.5476125 C179.61838,69.0163643 178.441824,67.9528442 177.692826,67.529074 C176.943827,67.1042801 176.729533,68.3786617 175.980535,68.3786617 C175.232567,68.3786617 175.873388,67.2097109 176.409123,66.4655539 C176.943827,65.7224206 173.948864,64.8718092 172.665161,65.2966031 C171.381458,65.7224206 170.95287,64.9782636 170.95287,64.1276523 C170.95287,63.277041 168.706905,64.1276523 167.850759,64.7653549 C166.994614,65.4040811 165.925205,64.1276523 166.994614,64.0211979 C168.064023,63.9147435 169.347726,63.0651558 169.027315,62.1080901 C168.705874,61.152048 165.925205,61.0455937 165.3905,62.2145445 C164.855795,63.3845189 162.60983,60.9381157 162.60983,59.9830972 C162.60983,59.0260315 159.186279,59.8766428 159.614867,58.2828982 C160.043454,56.6881299 155.657641,56.263336 154.481085,56.263336 C153.303498,56.263336 151.593268,57.2193781 151.806532,58.2828982 C152.019795,59.3453946 150.522829,58.9195772 150.308535,57.7516499 C150.094241,56.5826991 147.206424,59.0270551 146.351309,59.0270551 C145.496194,59.0270551 146.886014,55.9449965 146.458456,54.9879308 C146.030898,54.0318887 145.389047,53.7125256 144.747195,52.1198045 C144.105344,50.5250363 140.896086,51.1627389 140.040971,52.1198045 C139.185856,53.0758466 136.404156,52.6510528 134.907189,54.1383431 C133.409192,55.626657 135.013306,57.1139473 135.656188,57.6451956 C136.298039,58.1754202 133.410222,59.0270551 134.372485,59.8766428 C135.334747,60.7262306 136.832744,60.3014367 136.939891,61.6832963 C137.047038,63.0651558 133.410222,61.2574788 132.875518,60.088528 C132.340813,58.9185536 133.088782,57.8570807 132.340813,57.0064694 C131.591815,56.1568816 132.233666,55.0943852 133.624516,53.6060713 C135.015366,52.1187809 136.084776,52.3306661 136.084776,51.4800547 C136.084776,50.630467 130.094848,50.630467 126.56518,53.8179564 C123.034482,57.0064694 124.104921,61.2585024 124.319215,62.1080901 C124.533509,62.9576779 127.635619,62.532884 129.452997,63.0651558 C131.272435,63.5964041 130.309142,64.340561 128.918292,64.1276523 C127.527442,63.9147435 125.17433,63.4899497 125.281477,64.4470154 C125.388624,65.4040811 128.276441,67.2097109 129.988732,66.784917 C131.699992,66.3601232 131.699992,66.3601232 132.448991,67.3161653 C133.197989,68.2732309 135.22966,67.9538678 137.262362,68.0613458 C139.295063,68.1667766 141.648175,68.9099099 142.610438,69.0163643 C143.5727,69.1228187 144.749256,68.4851161 145.070697,67.9528442 C145.391107,67.421596 149.349363,68.8044792 150.524889,68.6970012 C151.702476,68.5915704 150.953477,67.529074 150.204479,67.2097109 C149.45548,66.8903478 149.775891,65.5095118 150.739183,66.0407601 C151.702476,66.5720083 153.305559,66.8903478 153.627,67.8474135 C153.900019,68.6601516 154.802526,68.2722073 154.911733,69.0163643 C155.01888,69.7615449 158.440371,70.610109 158.547518,71.4617439 C158.654665,72.3113316 155.232144,72.7361255 156.195436,73.4802825 C157.157698,74.2244394 158.654665,72.5221932 159.939398,72.417786 C161.223101,72.3113316 161.223101,75.1794579 162.185363,74.7567113 C163.496883,74.1763302 164.539506,75.2879595 165.821148,77.0935893 C167.104851,78.9012663 165.715032,80.6014654 165.821148,81.2381444 C165.928295,81.875847 168.388554,81.6629382 169.779404,80.9187813 C171.170254,80.1746243 172.453957,81.7693926 173.522336,82.7254347 C174.592776,83.683524 169.56408,85.2762451 169.992668,84.4266574 C170.420226,83.576046 166.997704,81.0272828 163.895594,82.1941865 C160.793483,83.3641609 162.932301,85.1718379 163.254773,86.2343344 C163.574153,87.2968308 160.473073,88.3583037 157.584226,87.4032852 C154.696409,86.4451959 155.551524,88.0389406 154.375998,88.0389406 C153.199442,88.0389406 151.915739,89.845594 152.985148,91.016592 C154.053527,92.1834957 156.40767,91.1230464 158.333224,91.2284772 C160.258779,91.3349315 160.473073,91.8661798 160.686336,90.8036833 C160.90063,89.7401632 162.932301,90.2714115 164.322121,90.5907746 C165.714001,90.9080905 165.392561,92.8211983 167.102791,93.0351306 C168.815082,93.2459921 167.425262,94.9482384 168.494671,96.1182128 C169.56305,97.28614 172.986601,96.6484374 174.269274,97.9248662 C175.552977,99.1982242 180.994807,101.740846 181.758229,100.792992 C182.613344,99.7315196 177.052004,94.8407604 175.446861,94.4169901 C173.842747,93.9921963 177.052004,93.4619716 179.083676,95.0557163 C181.116377,96.649461 184.110311,97.3946416 185.608308,95.4805102 C187.106305,93.5674024 184.325635,94.0996742 184.325635,92.7178147 C184.325635,91.3359551 183.361312,89.4228473 181.864345,89.4228473 C180.367379,89.4228473 176.5173,86.4472431 177.90712,85.8115877 C179.29797,85.1728615 177.478532,84.3212266 178.550001,83.1532994 C179.620441,81.9823013 180.68882,84.2137486 181.973553,84.320203 Z M160.10638,79.2462075 C161.361596,79.0183735 161.128888,76.9141954 160.41968,75.8341748 C159.895834,75.0378513 158.536857,74.922839 157.38641,75.0378513 C156.235963,75.150673 154.249378,77.0839756 155.294048,79.0172781 C156.340733,80.9516761 158.851164,79.4729461 160.10638,79.2462075 Z M146.124642,51.4948706 C145.484854,52.8412729 147.511019,52.8412729 147.616794,54.3962728 C147.723597,55.9502746 149.749761,56.4682752 151.242941,55.5350756 C152.735093,54.6028742 157,55.8125403 157,54.6028742 C157,53.4630732 152.521488,51.3900728 150.922534,51.7004739 C149.323579,52.0128712 146.764429,50.1474702 146.124642,51.4948706 Z M186.00376,142.187507 C186.229669,143.133483 192.770163,145.961189 192.994985,144.666577 C193.219808,143.368557 185.809348,141.378942 186.00376,142.187507 Z M213.743387,149.180791 C213.3137,149.988827 212.667094,148.593322 213.601196,147.859516 C214.53426,147.12677 213.455891,146.834095 212.594441,147.274167 C211.731954,147.711058 211.946797,145.291193 212.738708,144.851121 C213.529581,144.409989 210.798889,143.528785 210.798889,144.33576 C210.798889,145.146977 208.858033,144.629495 208.643189,143.895688 C208.428346,143.162942 207.064556,142.944497 207.565858,142.429136 C208.068197,141.916956 205.913535,141.621101 205.697653,142.501244 C205.48281,143.381388 204.836204,141.914835 205.913535,140.739897 C206.991904,139.564958 206.631756,138.540598 207.637472,137.949948 C208.643189,137.362479 207.565858,136.703962 206.488527,137.142973 C205.40912,137.584105 202.537274,141.621101 202.537274,142.722871 C202.537274,143.82358 202.463584,145.145916 201.458905,145.069567 C200.452151,144.998519 199.303205,145.951831 200.09304,146.5393 C200.882876,147.12677 198.006879,148.79374 199.374819,149.549815 C200.308922,150.061995 201.818016,149.329249 203.111228,149.475586 C204.403403,149.622984 205.48281,149.695092 206.559103,148.889177 C207.636434,148.080082 207.636434,149.620863 208.786418,149.475586 C209.936402,149.329249 208.139812,150.429959 208.211426,151.235873 C208.284079,152.044969 209.433024,150.795802 210.295512,150.35573 C211.156962,149.916719 212.234293,150.35573 211.803568,151.090597 C211.372843,151.822282 214.17515,152.55821 214.821756,151.383271 C215.4694,150.209393 214.176188,148.375937 213.743387,149.180791 Z M20.4338358,129.382636 C18.6336193,130.458421 22.9603034,135.58734 23.8637829,134.944466 C24.4821558,134.500732 22.7946334,132.352409 22.7946334,131.0277 C22.7946334,129.699744 22.2330891,128.309016 20.4338358,129.382636 Z M196.70381,154.010775 C195.952666,154.119618 196.543663,152.934793 196.64905,152.343935 C196.757537,151.752041 195.04034,152.612413 194.98868,153.312112 C194.934953,154.011812 193.755025,154.281326 193.755025,154.711512 C193.755025,155.967861 193.592811,155.303406 192.735246,155.733592 C191.876647,156.162741 188.55074,155.733592 188.445352,154.978953 C188.337898,154.226387 185.923283,153.85114 185.816862,152.825951 C185.709408,151.805944 184.528448,151.482527 185.493467,150.352642 C186.460553,149.220683 185.333319,148.682692 184.422027,149.5441 C183.509701,150.405508 182.973465,149.061048 184.207119,148.57696 C185.441807,148.091834 187.747934,147.607746 186.568007,145.454744 C185.38808,143.304852 177.986154,146.100541 176.108809,147.175487 C174.231464,148.252506 171.870576,151.697102 170.851829,151.697102 C169.833083,151.697102 172.62172,149.86648 173.050503,149.167817 C173.480319,148.467081 172.943049,147.767381 173.533013,148.037932 C174.12401,148.306409 175.785413,145.724258 176.912647,144.861813 C178.037814,144.002479 179.272502,144.81102 179.432649,144.109248 C179.594864,143.409548 180.130067,142.925459 181.202541,141.957282 C182.275014,140.987032 195.094067,141.149777 196.327721,141.202643 C197.561376,141.256546 199.975991,139.588669 200.672375,138.51165 C201.370826,137.435667 202.282119,137.435667 203.998283,137.543473 C205.714447,137.650242 206.519318,136.092244 207.376884,135.498277 C208.234449,134.906383 207.91312,134.636869 207.163009,134.477233 C206.410831,134.314489 205.714447,133.8304 206.464558,133.776497 C207.216736,133.723631 207.590758,133.291372 207.912087,132.324232 C208.233416,131.353981 207.644485,131.785204 206.624706,130.439707 C205.606993,129.096284 205.069723,130.871966 204.050976,130.763124 C203.031197,130.656355 204.747361,129.365798 203.888762,128.82677 C203.031197,128.287742 201.421453,128.666098 200.134072,129.742081 C198.847724,130.818063 198.954145,129.687141 197.827944,130.763124 C196.701744,131.839107 196.701744,130.226169 197.239014,129.795983 C197.776284,129.365798 198.15134,129.84885 198.633849,129.204089 C199.117392,128.557256 199.599902,129.204089 200.832523,128.395547 C202.066177,127.591152 203.138651,127.966398 203.51474,127.374504 C203.888762,126.78261 202.92271,125.975105 201.743815,126.244619 C200.563888,126.515169 199.76005,124.629608 199.008905,125.1676 C198.256727,125.706628 198.418941,124.361131 197.560343,124.899122 C196.701744,125.437114 196.220268,124.73845 195.844179,123.713261 C195.46809,122.693254 193.161962,121.023304 191.76816,120.593119 C190.373324,120.16086 191.28565,119.40933 192.035762,119.946285 C192.787939,120.485313 193.645505,119.408294 193.967867,118.869266 C194.289195,118.330238 193.43163,117.848223 193.001814,117.79432 C192.573031,117.738344 192.573031,117.037608 192.679452,116.500653 C192.787939,115.961625 191.178196,115.260889 191.123436,114.724971 C191.069709,114.184906 190.158417,113.80966 190.213177,113.324535 C190.266904,112.840446 189.301884,112.141783 189.301884,111.497023 C189.301884,110.850189 187.692141,109.558595 187.638414,108.80603 C187.58572,108.05139 186.727122,107.514436 186.40476,106.599125 C186.082398,105.683814 185.653615,106.115036 185.331253,107.404557 C185.009924,108.697187 183.883724,108.644321 184.205053,109.07347 C184.865275,109.95872 184.366234,109.987745 183.883724,110.526772 C183.401214,111.0658 184.205053,111.872269 183.401214,111.872269 C182.596343,111.872269 182.971398,113.540146 182.542616,112.78758 C182.113833,112.033977 181.095087,112.247515 181.095087,113.002154 C181.095087,113.75472 179.378922,114.45442 178.681505,114.401554 C177.984087,114.346614 177.984087,112.894349 177.394123,113.323498 C176.80416,113.753684 176.911614,112.086844 175.999288,112.140746 C175.087996,112.193613 174.444305,112.086844 174.711907,111.279338 C174.980542,110.47287 173.15589,110.096587 173.746887,109.611462 C174.335818,109.127373 173.585706,108.268038 173.478252,106.868639 C173.370798,105.469239 174.283124,105.36247 174.283124,104.824479 C174.283124,104.287524 173.6384,104.287524 172.995743,104.71771 C172.352052,105.145823 172.352052,104.124779 171.654634,104.177646 C170.95825,104.230512 168.865997,104.124779 168.758543,103.154529 C168.651089,102.186352 167.953671,102.671477 167.632343,101.756166 C167.309981,100.842929 166.452415,101.540555 166.452415,100.895795 C166.452415,100.248962 166.076326,99.9804842 165.432636,99.9255448 C164.788945,99.871642 164.57507,99.1740155 163.716472,99.0651733 C162.858906,98.9573677 161.7854,99.658104 161.30289,99.871642 C160.82038,100.087253 159.585693,99.1190761 159.104216,99.495359 C158.621706,99.871642 158.514252,99.2268817 157.173144,98.8495621 C155.832036,98.4722426 154.061111,98.364437 153.954691,98.8495621 C153.847237,99.3336507 152.77373,99.495359 152.934911,100.624208 C153.096092,101.754093 154.223326,101.538482 154.490927,102.293121 C154.759562,103.045687 153.954691,102.77721 153.900964,103.476909 C153.847237,104.176609 153.149819,104.123743 153.149819,104.606795 C153.149819,105.092957 153.633362,104.984114 153.900964,105.953328 C154.169599,106.920468 154.705835,106.867602 154.867016,108.158159 C155.028197,109.449753 154.4372,109.180239 153.900964,109.342984 C153.364727,109.503656 153.954691,110.148416 153.203546,111.009824 C152.452401,111.872269 151.808711,112.786543 152.398674,113.323498 C152.989671,113.863562 155.187312,114.7768 156.046944,116.231139 C156.905542,117.684441 156.851815,119.945248 156.584214,121.560259 C156.315579,123.17527 154.491961,123.550516 153.150852,124.949915 C151.810777,126.350351 150.415942,126.13474 149.772251,126.187606 C149.128561,126.242546 149.503616,127.534139 150.415942,128.555183 C151.328267,129.578299 150.578156,129.899643 151.060666,130.976662 C151.543175,132.052644 151.060666,132.913016 151.75705,133.88223 C152.454468,134.85248 152.024652,135.228763 151.220813,135.928462 C150.415942,136.629199 151.543175,136.252916 151.595869,137.166153 C151.649596,138.081464 151.220813,137.542436 150.523396,137.058348 C149.827011,136.574259 149.182287,137.971586 149.182287,138.564516 C149.182287,139.15641 147.51985,137.758048 147.143761,137.809877 C146.768706,137.864817 147.251215,136.894566 146.285163,136.142 C145.31911,135.389435 144.567966,135.227726 144.567966,134.476197 C144.567966,133.722594 142.905529,133.183567 142.905529,132.323195 C142.905529,131.461787 143.120436,129.255919 142.745381,128.609085 C142.370325,127.964325 142.691654,127.264625 143.014016,126.672731 C143.335344,126.079801 142.63896,125.165526 141.672907,125.165526 C140.706855,125.165526 139.367813,124.84211 138.025671,124.949915 C136.684563,125.057721 135.933418,124.84211 135.504636,124.46479 C135.075853,124.089544 133.842199,123.282039 132.178728,122.850816 C130.516291,122.42063 129.765147,121.560259 129.603966,121.07617 C129.442785,120.591045 127.780348,120.214762 127.405292,119.729637 C127.030236,119.244512 125.420493,118.977071 124.777835,119.08384 C124.133111,119.191646 122.524401,117.737307 121.560415,117.793283 C120.593329,117.846149 118.341962,118.815363 117.965873,118.868229 C117.589784,118.923169 118.0196,118.062797 118.287202,117.684441 C118.555837,117.307122 117.48233,115.693148 117.214728,114.616128 C116.946093,113.540146 116.571038,112.356358 115.444837,112.517029 C114.318637,112.677701 113.084982,112.086844 112.763654,111.872269 C112.441292,111.655621 112.388598,108.589382 112.6562,107.298825 C112.923802,106.006194 114.318637,104.067767 114.318637,103.262335 C114.318637,102.455866 115.230962,102.07751 116.035834,101.863972 C116.839673,101.648361 116.195982,100.087253 117.000854,99.9804842 C117.805725,99.871642 117.858419,99.5492618 118.020633,98.9045015 C118.181814,98.2566315 119.147867,98.6888904 118.610597,98.1508991 C118.07436,97.6129077 118.503143,97.4501628 119.736797,97.4501628 C120.970452,97.4501628 122.79407,97.0189405 122.526468,95.782286 C122.257833,94.5466682 119.03938,95.4599059 119.03938,94.4367895 C119.03938,93.413673 114.963361,93.3608068 115.230962,92.7699493 C115.499597,92.1780552 119.308014,93.2001351 120.701817,93.7370898 C122.096652,94.2771543 122.472741,94.2222149 123.597908,94.1683121 C124.725142,94.1144093 123.973997,92.6621438 124.187872,92.0702496 C124.40278,91.4783555 126.547726,92.9834873 127.781381,92.6621438 C129.015035,92.3376904 130.195996,89.8094422 131.214742,89.1118157 C132.234522,88.4110794 131.322196,87.7652826 129.337397,87.9269909 C127.353631,88.0876627 126.227431,87.3350968 125.154957,86.526555 C124.081451,85.7200863 124.188905,85.0742894 125.315105,85.182095 C126.441306,85.2878274 129.123522,87.4968052 130.142269,87.5486348 C131.161015,87.6035742 132.930906,85.5583779 133.788472,84.9115444 C134.648103,84.2657475 132.985666,83.9962336 132.394669,83.5131817 C131.804706,83.0290931 133.412383,82.7056764 134.272014,82.7056764 C135.12958,82.7056764 135.504636,83.4592789 135.826998,83.8345252 C136.148326,84.2118447 137.650616,83.5670844 138.40176,83.5670844 C139.152905,83.5670844 138.294306,82.3283569 137.060652,81.8442683 C135.828031,81.3601798 137.114379,80.4459056 137.490468,81.199508 C137.865524,81.9531105 138.723089,81.7903655 139.152905,82.6528102 C139.776965,83.9070867 140.171651,83.0819593 141.244125,82.7056764 C142.317631,82.3293935 142.853868,81.68256 143.443832,81.0388363 C144.033795,80.3930394 144.141249,81.1445687 144.837634,80.1235254 C145.535051,79.0993724 144.516305,78.1322319 143.657706,77.4853985 C142.799108,76.8406381 143.711433,76.1948413 142.852835,75.7656921 C141.995269,75.3334332 141.834088,74.5259279 142.906562,74.7415391 C143.979035,74.9571503 144.837634,74.6337335 145.320143,73.8811676 C145.802653,73.1275652 143.7104,72.9658568 144.676453,72.4268289 C145.641472,71.8888376 144.836601,71.3529194 143.871581,71.3529194 C142.905529,71.3529194 142.100657,70.8688309 142.04693,70.0602891 C141.994236,69.2527838 140.330766,69.7918117 139.312019,69.30565 C138.293273,68.8225981 136.039839,68.9293671 135.503602,68.9832698 C134.966332,69.0371726 134.913639,71.2440773 135.717477,71.2979801 C136.522349,71.3518828 137.166039,72.2122543 136.468622,72.4828049 C135.772237,72.7512822 136.577109,73.6106171 136.039839,73.5567143 C135.503602,73.5048847 134.646037,73.2343341 134.484856,74.6326969 C134.323675,76.0331329 134.216221,76.5711242 133.303895,77.0552127 C132.392603,77.5413744 133.090021,75.4961782 132.232455,75.5490444 C131.372823,75.6029472 131.266403,77.2718605 131.910093,77.4314957 C132.553784,77.593204 132.661238,78.1311953 132.821386,78.9387006 C132.982567,79.7451693 131.641458,79.1543118 131.105222,80.1235254 C130.568985,81.0906659 130.515258,79.6923031 129.764113,79.0465062 C129.014002,78.3996727 128.101676,77.3226535 128.155403,76.5172214 C128.202931,75.8102656 128.585219,75.5490444 129.17415,75.4402022 C129.764113,75.3323966 129.17415,74.7944053 129.121456,73.8251917 C129.067729,72.8570146 128.370311,73.1793948 127.511713,72.1573149 C126.654147,71.1352351 125.741822,71.1352351 125.259312,71.6193236 C124.776802,72.1034121 125.099164,73.018723 124.348019,73.3411031 C123.595842,73.6645199 123.918204,75.1706882 123.274513,75.2774572 C122.629789,75.3852628 123.005878,72.6414035 122.470674,72.3729261 C121.934438,72.1023755 121.987131,71.4576152 122.792003,71.3508463 C123.596875,71.2430407 124.079384,70.3816326 123.381967,70.3816326 C122.685582,70.3816326 121.450895,69.6280301 120.968385,69.412419 C120.485875,69.1968078 119.682037,70.3277298 119.1458,69.8965075 C118.60853,69.4663218 119.198494,68.3903391 119.252221,67.798445 C119.305948,67.2075875 120.11082,68.0689956 120.64809,67.3143565 C121.184326,66.560754 119.1458,66.560754 119.1458,65.7532488 C119.1458,64.9457435 117.536057,64.7311689 116.998787,64.461655 C116.46255,64.192141 117.373843,62.8476811 117.106241,62.3086531 C116.838639,61.7706618 114.85384,59.9960161 113.996275,60.1566879 C113.137676,60.3173597 112.922768,59.0257659 113.405278,59.0796687 C113.887788,59.1335715 114.263877,58.8111913 115.176202,57.7880749 C116.086461,56.7659951 116.193915,56.4425783 115.550225,56.2280037 C114.907567,56.0123926 114.585205,55.3665957 115.711406,55.4204985 C116.837606,55.4754379 118.822405,56.2280037 119.465063,55.7439152 C120.109786,55.2598267 122.147279,52.084745 122.952151,50.9548596 C123.755989,49.8249742 122.36322,49.7171686 120.432148,49.8778404 C118.501076,50.0395488 118.07126,49.1242379 116.46255,49.0164323 C114.85384,48.9096633 111.850295,49.3398491 111.420479,49.8239376 C110.991696,50.3080261 112.225351,50.7382119 112.065203,51.2762032 C111.904022,51.8141945 110.939003,50.8999202 110.51022,51.1144948 C110.080404,51.330106 110.670368,52.0298056 110.51022,53.9122569 C110.349039,55.7957448 110.885276,55.9035504 111.421512,56.6032501 C111.957749,57.3029498 111.851328,58.2182606 111.851328,59.4010122 C111.851328,60.585837 110.725128,60.5319342 110.350072,60.8014482 C109.975016,61.0699256 111.316125,61.5001113 111.101217,62.2537138 C110.886309,63.0083528 109.760108,61.823528 109.116418,62.0381026 C108.472727,62.2537138 107.93649,64.0832989 108.633908,64.675193 C109.331326,65.2681237 109.599961,65.1603181 109.063724,65.8600178 C108.527487,66.5597175 107.937524,67.5817973 109.224905,68.6038771 C110.512286,69.6269936 112.871108,69.519188 114.105795,70.3266932 C115.33945,71.1331619 113.569559,70.6490734 114.051035,71.5633476 C114.534578,72.4796951 113.247197,72.8010386 113.29989,73.5017749 C113.353617,74.1994014 113.83716,73.8241551 114.480851,72.6393303 C115.124542,71.4555421 115.607051,72.962747 115.553324,73.9858634 C115.500631,75.0079433 114.588305,74.4160492 113.890887,75.438129 C113.194503,76.4602088 112.549779,76.619844 111.531033,76.406306 C110.512286,76.1917315 111.10225,77.8596082 111.531033,78.7749191 C111.959815,79.6891933 111.423579,80.0105369 110.243651,79.6891933 C109.063724,79.3668132 108.366306,78.6121741 108.955237,77.6989364 C109.5452,76.782589 109.975016,75.7066064 109.277599,75.8144119 C108.580181,75.9232541 106.971471,75.7625823 106.487928,75.0079433 C106.005418,74.2533042 106.811323,74.5767209 108.257819,74.7384293 C109.705348,74.9001377 108.472727,73.7702523 109.5452,73.7702523 C110.618707,73.7702523 111.422545,74.3621464 112.334871,73.5546411 C113.246163,72.749209 111.744907,71.1870647 110.993763,71.4576152 C110.242618,71.7271292 109.062691,72.0484728 109.062691,71.2969435 C109.062691,70.5423044 110.350072,71.0813323 111.046456,70.9185873 C111.743874,70.7579156 110.671401,69.7907751 109.598927,70.0582159 C108.525421,70.3277298 107.774276,70.3816326 106.916711,69.4652852 C106.059145,68.5499743 104.503129,68.0130196 104.128073,70.1110821 C103.751984,72.2101811 102.250728,71.0802957 101.660765,71.7799954 C101.070801,72.4807317 102.358182,72.9637836 103.806745,73.0176864 C105.254274,73.0715892 106.326747,74.4170858 105.631396,74.4170858 C104.933978,74.4170858 105.255307,75.4391656 104.504162,75.0628827 C103.753018,74.6865997 103.001873,75.0628827 103.53811,75.707643 C104.075379,76.355513 103.324235,76.6208806 103.376929,77.2697873 C103.430656,77.9155842 102.250728,77.3216169 101.124528,77.2148479 C99.9983275,77.1070423 97.9060745,77.4833253 96.4048184,77.806742 C94.9014959,78.1301588 93.240092,77.5921674 92.5964014,76.8914312 C91.9516775,76.1938047 91.0941121,76.3005737 90.0216387,76.3005737 C88.9481321,76.3005737 89.270494,75.2774572 87.8756587,75.224591 C86.4808234,75.1706882 86.8021521,73.9869 86.6420044,73.2872003 C86.4808234,72.5875007 83.6921859,72.8031118 82.6734395,73.4478721 C81.6546932,74.0947056 79.6698941,73.8251917 79.1326242,75.0089799 C78.5963876,76.1938047 79.6151339,76.0310597 80.2061308,76.0310597 C81.0265007,76.0310597 80.9572755,75.0628827 82.4595648,75.2764206 C83.9608209,75.4930684 85.0332943,73.7163495 85.6769849,74.3621464 C86.3206756,75.0079433 83.1022223,76.2435611 81.7084201,76.4602088 C80.3135848,76.67582 80.6359468,77.8046688 81.9760219,79.7969989 C83.3171302,81.7872558 81.3860582,80.6573704 81.3860582,81.626584 C81.3860582,82.5937244 78.8639893,81.3031672 79.8848021,80.9797505 C80.9035485,80.6563338 80.4200056,79.6342539 79.6151339,78.9894936 C78.8112955,78.3436967 78.2750588,78.9894936 78.3825128,78.2908305 C78.4899668,77.5911308 77.5239142,78.3436967 76.7727695,77.7528392 C76.0216249,77.1599085 75.6455359,76.67582 74.6278227,77.2138113 C73.6080431,77.7528392 72.4281158,77.5911308 70.175715,77.9674138 C67.9222811,78.3447333 63.7935685,78.2358911 63.0424239,77.4833253 C62.2912792,76.7307594 64.9734959,75.3852628 65.7773343,75.6019106 C66.5574089,75.809229 66.0996962,74.7394659 64.8660419,73.7712889 C63.6313543,72.8031118 60.8954107,72.2112177 60.9501709,72.8031118 C61.0038979,73.3950059 59.3941546,72.8570146 57.4103888,72.4807317 C55.4255898,72.1023755 55.1569548,71.4016393 53.8695735,71.3508463 C52.625587,71.2969435 50.6521533,70.9185873 49.149864,69.7358357 C47.6475747,68.5499743 44.1077926,68.8733911 43.6790099,69.9504103 C43.2502272,71.0274295 42.0692666,70.9724901 40.8893393,70.9724901 C39.7094119,70.9724901 41.4224763,69.6425424 40.9967932,69.412419 C40.4316266,69.1086975 41.0505202,67.6367367 40.1919216,67.5299677 C39.3343562,67.4211255 38.5294845,71.0813323 36.9197412,70.9724901 C35.3110312,70.8667577 34.6136135,67.099782 33.2725052,66.1305683 C31.93243,65.1623913 30.6977425,65.1074519 31.8239429,66.5617906 C32.9501432,68.0150928 30.8589235,66.9919764 30.9663774,67.96119 C31.0738314,68.9293671 29.1437926,70.0602891 29.1964864,69.5222977 C29.2502134,68.9832698 28.1229798,68.3913757 26.8366317,69.8975441 C25.5502835,71.4037125 24.6369247,71.1891379 24.5305039,70.6521832 C24.4230499,70.1131553 20.6156661,72.0505459 20.7758139,72.6973794 C20.9369948,73.3431763 20.1858502,73.8272648 19.1671038,73.7733621 C18.1483574,73.7194593 18.9521958,72.8590878 19.7560343,72.4268289 C20.6611274,71.9448135 23.1356686,69.9524835 24.4230499,69.7379089 C25.7104313,69.5222977 28.1787732,68.5002179 28.231467,67.9083238 C28.2862272,67.3153931 26.9988458,67.7994816 26.1402472,67.6377733 C25.2826818,67.4760649 23.7803925,68.4452785 22.3318302,69.0910754 C20.8843011,69.7379089 19.2208308,69.5222977 19.6506467,70.3826692 C20.0794294,71.2440773 18.3095384,70.273827 17.9334494,70.8677943 C17.5583937,71.4586518 16.8609761,70.8128549 17.3972127,70.4894382 C17.9334494,70.167058 16.1098314,69.5762005 16.1098314,69.9514469 C16.1098314,70.3287664 15.7874695,70.8128549 14.5000881,70.8128549 C13.21374,70.8128549 11.9253254,71.7281658 12.7839241,72.3739627 C13.6425227,73.018723 14.1787594,73.3421397 13.7489435,73.7723255 C13.3201608,74.2025112 11.9800856,72.64244 10.1017074,72.8041484 C8.22436236,72.9648202 4.46967231,70.706086 4.46967231,70.1680946 C4.46967231,69.7316894 1.8298173,70.0022399 0,69.8052874 L0,106.998213 C0,106.998213 0.928857006,107.69273 1.28634813,107.261507 C1.64487247,106.831322 2.28856314,107.405594 3.50361969,106.831322 C4.71867624,106.257049 5.14745896,107.478155 5.14745896,108.049317 C5.14745896,108.624626 6.86362301,109.558595 7.57860527,110.489455 C8.29462073,111.421351 8.65211186,112.211235 9.4383857,111.708487 C10.2246595,111.207813 11.6556573,110.919641 11.6556573,109.984635 C11.6556573,109.054812 14.9454022,108.910725 14.9454022,110.130794 C14.9454022,111.349827 18.3064387,112.785507 20.1662192,116.083943 C22.0259996,119.386525 21.7387668,120.10281 24.4571459,121.178793 C27.1744918,122.256849 27.1042334,122.830084 26.7457091,123.764054 C26.3882179,124.69284 28.3905815,125.198697 27.2468166,125.986507 C26.8077017,126.289192 26.1919078,126.729744 25.596778,127.15682 C25.6494718,127.630542 26.0751549,127.935301 26.6206905,128.390365 C27.2643812,128.929392 25.4397299,128.929392 25.9769998,129.412444 C26.5132365,129.896533 25.8695458,130.651172 26.4057825,131.243066 C26.9420192,131.833924 27.9080718,131.619349 28.4970023,131.13526 C29.086966,130.651172 29.5167819,131.728191 29.033239,132.533623 C28.5517625,133.342165 29.5705089,133.935096 30.0530186,133.342165 C30.5344951,132.748198 31.5542747,134.310342 32.0367844,134.57882 C32.5203273,134.848333 33.002837,135.654802 32.1979654,135.654802 C31.3930937,135.654802 31.5015809,137.055238 32.0905114,137.107068 C32.6815083,137.162007 32.6267481,137.914573 32.6267481,138.398661 C32.6267481,138.881713 34.5040931,139.583486 35.202544,139.368912 C35.8999616,139.153301 36.5426191,139.798061 36.864981,140.390992 C37.187343,140.980812 38.4736911,141.412035 38.957234,141.035752 C39.4397437,140.659469 39.7610725,141.734415 39.8685264,142.486981 C39.9759804,143.24162 41.0484538,142.810398 41.6921445,142.758568 C42.3358352,142.702592 42.7108909,143.617903 43.1407068,143.457231 C44.085062,143.10168 44.3702283,144.757118 44.9953212,145.727368 L111.660184,145.366634 C111.660184,145.366634 111.704612,143.706013 112.491919,144.280285 C113.279226,144.854557 112.563211,145.786454 113.493101,146.147188 C114.422991,146.504812 115.066682,147.079084 115.567789,146.862436 C116.067864,146.648898 116.926462,145.93054 117.785061,146.937071 C118.64366,147.939455 119.28735,147.079084 119.787425,147.724881 C120.288532,148.368605 121.217389,148.872388 121.86108,148.084578 C122.382851,147.443964 124.361451,148.219335 125.320271,148.571777 C126.495033,147.626405 127.425956,145.610233 128.476732,145.610233 C129.871567,145.610233 133.410316,145.931576 133.626257,147.761162 C133.841165,149.59282 135.986112,147.870004 136.20102,149.59282 C136.382865,151.053378 137.800431,152.207105 137.562793,152.982476 C137.971944,153.237478 138.482351,153.578517 138.941097,153.943397 C139.621983,153.713274 141.436302,154.005593 142.637927,154.435778 C144.140216,154.97377 146.391584,153.791018 147.142728,155.62164 C147.893873,157.451225 149.637934,158.829892 148.001327,158.957393 C146.607525,159.065199 144.783907,157.126771 144.890328,158.203791 C144.997782,159.278737 144.140216,158.742819 144.140216,160.353683 C144.140216,161.970766 143.066709,164.229501 142.423019,164.121695 C142.400288,164.116512 142.38169,164.104073 142.361026,164.096817 C142.251506,164.70737 142.24324,165.501399 142.752613,166 C143.569883,165.404996 144.741545,164.37877 145.747893,164.446148 C147.357636,164.553954 147.786419,165.522131 148.858892,164.770602 C149.931366,164.015963 150.146274,163.694619 150.361182,164.230537 C150.389078,164.298952 150.367381,164.383953 150.323986,164.4731 C150.733138,164.254379 151.02037,164.041877 151.041035,163.869803 C151.069965,163.599253 150.99764,163.237482 150.903618,162.906809 C149.828045,163.065408 149.477786,163.146262 149.180221,162.399916 C148.751438,161.32497 152.397641,160.248987 154.114838,160.464598 C155.742146,160.666734 156.885911,159.522336 157.456244,160.224109 C158.488422,159.295322 160.246948,157.773605 160.693295,157.773605 C161.336986,157.773605 168.989982,157.70208 168.989982,157.70208 C168.989982,157.70208 171.635003,156.051825 171.993528,154.545657 C172.349986,153.039489 174.067183,149.448734 175.068365,150.24069 C176.069547,151.029537 178.215526,150.456301 178.285785,151.173623 C178.35191,151.837042 177.573902,154.27407 180.325344,157.921838 C181.29243,157.307138 182.293612,156.827196 182.862911,156.860367 C183.827931,156.91427 185.276493,155.623713 185.706309,154.814134 C186.135091,154.007666 186.725055,155.568773 185.865423,155.837251 C185.007858,156.107801 186.563874,156.750488 188.06513,156.698659 C189.566386,156.644756 187.367713,157.235614 186.241512,157.181711 C185.114279,157.127808 184.631769,157.289516 183.130513,158.797758 C181.629257,160.304963 182.005346,160.734112 182.861878,161.486678 C183.720477,162.242354 184.846677,161.918937 186.026604,160.89582 C187.206532,159.872704 187.153838,158.850624 188.332732,158.905563 C189.511626,158.959466 192.569932,157.828544 193.910007,157.399395 C195.251115,156.968173 194.392517,156.751525 194.392517,156.159631 C194.392517,155.56981 196.752371,155.56981 197.61097,154.975843 C198.473701,154.387058 197.454955,153.900897 196.70381,154.010775 Z M56.5445493,83.8594792 C55.1527452,85.5280894 54.6888104,85.7736473 53.2540873,85.5280894 C51.8203859,85.2864763 50.9354356,85.9777858 51.6507534,86.4669293 C52.3701588,86.9550865 52.412056,87.3623773 50.9354356,87.6878155 C49.4577933,88.0132536 48.4880267,89.1128402 47.8973786,88.9905543 C47.3067304,88.8682685 50.4285818,86.7095286 49.626404,86.1405049 C48.825248,85.5714812 46.8427957,87.1187918 46.8008985,87.8101013 C46.7590013,88.5004247 45.4509916,88.5428303 44.6508575,88.5004247 C43.8476577,88.4599915 42.7940968,87.7262764 43.5942308,87.6463961 C44.3964087,87.5655296 43.8476577,86.7095286 44.9451597,86.3042102 C46.0406178,85.8959332 44.7326081,85.2874624 45.0718731,84.8397384 C45.4101163,84.3910282 47.6449736,85.2874624 47.6868707,84.473867 C47.7287679,83.6582992 45.4509916,82.9660035 44.6917328,83.4561331 C43.932474,83.9433042 42.1605295,85.083324 40.0513638,84.1868897 C39.3871401,83.9058295 45.3661753,83.2944002 46.3798829,82.3989521 C47.3915467,81.5025179 51.9460775,80.4837978 52.2843206,81.2973933 C52.6215419,82.1119749 49.8379337,82.6425377 51.1868187,83.3752667 C52.5357038,84.1079956 54.7307076,83.6198384 55.2355177,82.84569 C55.7413495,82.0705554 57.9363534,82.1918551 56.5445493,83.8594792 Z M70.3380576,101.824348 C68.7137299,103.238909 68.8388334,102.863844 67.4233478,103.112879 C66.0068534,103.362923 67.1307671,104.778492 65.4237096,104.901497 C63.7166522,105.028536 59.5932812,105.195903 59.0111464,104.237067 C58.81542,103.917455 61.2599827,104.152375 61.4264511,103.447615 C61.5939283,102.737814 62.2598018,101.614634 63.2999768,101.614634 C64.3401519,101.614634 64.2574222,100.244436 62.5493558,99.4086046 C60.8433073,98.5768064 65.0070343,98.0343732 65.9644796,99.3672668 C66.9219249,100.699152 68.6310001,101.657989 69.5874366,100.699152 C70.5448819,99.7413239 75.9999998,97.0785615 75.9999998,98.3267629 C76.0010087,99.5759725 71.9613764,100.409787 70.3380576,101.824348 Z M107.298944,139.996302 C106.205068,140.123597 107.399088,136.930026 105.398142,135.766043 C103.047656,134.400426 102,131.854531 102,130.480766 C102,129.107002 103.99902,128.471546 104.799206,129.52962 C105.598429,130.586675 106.798226,134.921825 107.498268,136.295589 C108.197348,137.670373 108.197348,139.890393 107.298944,139.996302 Z" id="path-1"></path>
        <filter x="-3.3%" y="-3.0%" width="106.5%" height="108.4%" filterUnits="objectBoundingBox" id="filter-2">
            <feOffset dx="0" dy="2" in="SourceAlpha" result="shadowOffsetOuter1"></feOffset>
            <feGaussianBlur stdDeviation="2" in="shadowOffsetOuter1" result="shadowBlurOuter1"></feGaussianBlur>
            <feColorMatrix values="0 0 0 0 0   0 0 0 0 0   0 0 0 0 0  0 0 0 0.00993546196 0" type="matrix" in="shadowBlurOuter1"></feColorMatrix>
        </filter>
    </defs>
    <g id="design" stroke="none" stroke-width="1" fill="none" fill-rule="evenodd">
        <g id="choose-country1" transform="translate(-364.000000, -129.000000)">
            <g id="Group-5" transform="translate(368.000000, 131.000000)">
                <g id="canada">
                    <use fill="black" fill-opacity="1" filter="url(#filter-2)" xlink:href="#path-1"></use>
                    <use fill="#999999" fill-rule="evenodd" xlink:href="#path-1"></use>
                </g>
                <text id="Canada" font-family="IBMPlexSerif, IBM Plex Serif" font-size="30" font-weight="normal" fill="#222222">
                    <tspan x="0" y="122">Canada</tspan>
                </text>
            </g>
        </g>
    </g>
</svg>