<?xml version="1.0" encoding="UTF-8"?>
<svg width="306px" height="114px" viewBox="0 0 306 114" version="1.1" xmlns="http://www.w3.org/2000/svg" xmlns:xlink="http://www.w3.org/1999/xlink">
    <!-- Generator: sketchtool 57.1 (101010) - https://sketch.com -->
    <title>7F1004A6-9695-4B35-99AB-955FC2286F7B</title>
    <desc>Created with sketchtool.</desc>
    <defs>
        <path d="M21.0398448,44.9464532 C20.705879,45.9485463 22.5475307,49.9831365 23.7164107,48.7771291 C24.8925509,47.5623824 22.0974029,41.7537377 21.0398448,44.9464532 Z M84,56.0320632 C84,54.0806686 78.699177,55.0282208 80.3018894,57.7676785 C81.9461537,60.5728082 84,57.9772033 84,56.0320632 Z M11.0503677,28.4204507 C10.6288036,30.2892017 12.9203059,35.7037187 15.4256014,33.4676987 C17.930897,31.2235772 11.4538649,26.5841058 11.0503677,28.4204507 Z M156.331032,61.3875704 C159.246821,61.5777744 158.859172,65.8377833 158.274891,68.3523914 C157.6878,70.8697965 156.51081,76.8472352 159.052996,75.8990126 C162.1598,74.7382091 164.106469,70.8697965 162.356434,69.515992 C160.603589,68.1621874 160.803032,59.6393724 161.578328,57.5163607 C162.356434,55.3793634 167.609348,56.9317633 165.856504,60.2239698 C164.106469,63.5189734 169.159941,63.1189857 169.159941,66.8083829 C169.159941,70.4809973 172.07573,68.5509866 175.188152,67.5831842 C178.303384,66.6153818 177.721911,64.8643866 175.581419,62.5455768 C173.440926,60.2239698 177.13763,56.9317633 174.22465,54.9933613 C171.306052,53.0633507 169.359384,50.1571463 172.078539,49.575346 C174.806122,48.9935457 182.966399,44.3447375 181.997278,42.4119297 C181.025349,40.4707306 169.553208,42.7979319 168.578469,46.2803423 C167.612157,49.7627528 159.446263,45.888746 160.418192,39.8945246 C161.392931,33.8919118 177.525278,32.9241094 182.191102,35.0527153 C186.859736,37.1869155 191.913208,31.5675077 193.660434,28.2780983 C195.413279,24.9802975 189.972158,28.8598986 186.663102,30.9885045 C183.359665,33.1227047 174.612298,30.7927064 170.137489,29.2459007 C165.665489,27.7018922 165.862122,31.956307 162.165419,32.5353101 C158.471524,33.1227047 159.24963,41.2511262 157.499594,42.2189287 C155.74675,43.1923253 155.74675,49.1893438 152.252298,54.8059545 C148.746609,60.4141737 153.412433,61.1917722 156.331032,61.3875704 Z M69.0694851,66.0527401 C68.8738992,63.3493143 70.0334446,60.6430957 70.0334446,59.2857972 C70.0334446,57.9396699 71.0001981,57.3587685 72.7381191,57.7413814 C74.4816283,58.1267872 74.2944246,54.0660629 72.9337051,53.6806571 C71.5813678,53.300837 70.8102003,48.4637156 67.5159737,48.4637156 C64.2329235,48.4637156 64.8112991,51.1671414 66.7503943,51.3654299 C68.6866954,51.5553399 69.8378586,53.1053413 69.262277,54.4570542 C68.6811073,55.8087671 67.9127338,53.1053413 65.2024711,53.300837 C62.4894143,53.4879542 64.2329235,50.0053386 61.1398711,49.8154285 C58.0468187,49.6227256 58.6307825,44.0147928 55.3337619,44.0147928 C52.0451235,44.0147928 51.8579198,41.311367 53.9842187,39.3815454 C56.1077235,37.4433455 50.6955803,35.7034341 50.6955803,33.3882068 C50.6955803,31.0618084 47.2169441,32.4218997 47.2169441,30.4836998 C47.2169441,28.556671 45.6718149,29.5229782 43.9255116,27.1993726 C42.1903847,24.8813525 41.4136289,27.0066697 39.8657057,25.2723438 C38.3233706,23.5296396 36.1942776,22.5633324 34.8391463,23.1414411 C33.486809,23.7279281 30.3881684,20.6279253 29.228623,17.536301 C28.3093689,15.0702628 19.368296,10.962061 18.2031625,7.67773376 C17.0464111,4.39340654 13.9505647,3.03610805 8.73121333,3.23160372 C3.51186201,3.418721 1.44982707,-1.87921159 0.214841375,0.718087993 C-1.3274937,4.01079359 5.82815872,11.3502595 9.1167971,13.2856666 C12.4026414,15.2126953 14.1405625,22.1723411 18.0103706,22.5633324 C21.8857669,22.9487382 22.2629684,35.1253255 25.166023,35.7034341 C28.0690776,36.2899211 34.2663588,45.7602898 35.2303182,50.7817357 C36.1970717,55.8115599 42.5731743,58.3250756 44.7078555,61.9976014 C46.8313603,65.6673343 55.33935,70.6999514 56.5016895,72.2415744 C57.6584408,73.7859901 58.8235744,77.265813 59.7959161,75.5231088 C60.7626696,73.7859901 64.8196814,75.5231088 66.7559825,75.7213972 C68.6839014,75.9196857 69.2594829,68.7617515 69.0694851,66.0527401 Z M215.207093,35.7352295 C219.518738,36.1281081 217.552719,33.5968474 217.552719,30.8803725 C217.552719,28.1638977 213.637677,30.4931065 213.637677,29.1348691 C213.637677,27.7738254 212.266562,22.3380694 209.127729,26.6064147 C205.988897,30.8803725 210.136235,41.4403879 212.651834,40.9857713 C214.818988,40.5928927 210.889782,35.3451572 215.207093,35.7352295 Z M200.053812,59.6075208 C200.814094,62.6378401 206.322707,64.3319772 207.846016,61.6924024 C209.361091,59.0391652 199.175508,56.1017502 200.053812,59.6075208 Z M184.425451,92.1030788 C179.155514,91.3288863 175.640343,95.2337549 170.364765,93.2728441 C165.094829,91.3288863 157.206851,93.3124014 158.064486,95.033143 C158.848769,96.6013066 163.531903,96.7962675 168.80466,96.9912283 C174.077418,97.1805382 178.763373,94.2448229 182.278544,94.0555131 C185.790894,93.8605522 189.701029,92.8857478 184.425451,92.1030788 Z M225.678338,56.6420777 C220.705194,55.1430773 212.220458,56.4233047 213.057604,58.883826 C213.820153,61.1282752 217.834585,60.1937633 221.860069,60.1937633 C225.874501,60.1937633 227.974273,63 230.082333,63 C232.184868,63 230.657008,58.1329754 225.678338,56.6420777 Z M124.562462,89.9221316 C124.372675,87.55892 116.828661,89.7259083 113.164106,88.1532777 C109.496761,86.5721157 117.219398,85.2013961 119.731278,83.6173903 C122.240368,82.0419159 118.185076,81.4560897 112.00585,83.4296984 C105.81546,85.3947756 98.6761375,79.0985658 98.480769,81.8485364 C98.2909825,84.6070384 87.2722,80.6683525 84.5733239,78.7032752 C81.8688658,76.738198 71.4361887,74.1702316 69.3066722,77.9126942 C67.1855287,81.6608445 65.3490649,78.3051409 66.2226412,81.8513802 C66.8003737,84.2145918 69.3066722,82.8381845 71.0482427,82.8381845 C72.7870223,82.8381845 72.0139213,86.1882004 74.5202198,86.5749595 C77.0348913,86.9759376 85.3464249,89.3363054 86.1167349,87.5617638 C86.8870449,85.7957538 94.618055,87.5617638 98.480769,90.7127126 C102.343483,93.8579737 111.227167,94.0570409 114.707517,93.4683709 C118.182285,92.8797008 122.04779,95.8287386 123.398624,93.8608175 C124.755039,91.8985841 127.261338,97.0117663 131.129634,94.0570409 C134.992348,91.1080031 124.75783,92.2824993 124.562462,89.9221316 Z M275.705548,47.79627 C272.82535,47.9948864 272.43651,53.0302332 269.939598,53.0302332 C267.442686,53.0302332 263.979227,58.2558041 259.365911,59.8111668 C254.749818,61.3581372 254.558176,46.4535108 252.441772,43.5469968 C250.328146,40.6404827 238.799023,38.3186284 237.646388,41.6055909 C236.490976,44.903743 232.483141,43.1581561 232.063748,45.8688511 C231.68324,48.3865245 233.027517,47.6116406 235.524429,47.6116406 C238.018564,47.6116406 238.018564,49.5418568 239.176753,52.0623276 C240.332165,54.5827984 247.253528,52.840009 249.558797,52.6469873 C251.864066,52.4539657 252.247352,55.7409282 248.981091,54.5827984 C245.71483,53.4246687 245.71483,56.1269714 243.406783,55.550704 C241.101514,54.9660443 238.018564,55.1590659 239.557262,56.5186095 C241.101514,57.8725583 243.590094,59.2265071 243.590094,62.3260428 C243.590094,65.422781 248.020099,64.8437161 248.020099,62.3260428 C248.020099,59.8139642 250.325368,63.0981293 254.747041,64.256259 C259.171491,65.422781 256.096873,67.1627731 260.515769,67.3613895 C264.934664,67.5572086 274.930644,70.8497659 278.774611,73.7450902 C282.629688,76.6516043 279.927246,78.5874154 282.429712,81.3037052 C284.926624,84.0088054 285.693196,87.1111385 282.232515,87.1111385 C278.774611,87.1111385 275.125064,90.5911225 276.083279,92.333912 C277.04427,94.0767015 288.39286,91.5590281 291.07586,91.5590281 C292.842308,91.5590281 294.61431,94.7145121 298,97 L298,55.6737902 C289.684367,52.8511986 278.077475,47.6396147 275.705548,47.79627 Z M192.865329,97 C192.248388,97.3897954 191.530073,97.6875557 190.664039,97.8716257 C190.394671,98.5700091 190.128199,99.3468929 189.66477,99.68255 C189.102862,100.094001 188.135453,99.2683925 187.448999,98.5402331 C183.573571,100.045276 181.534482,104.376336 184.225268,105.718964 C186.811783,107.007455 190.580043,103.583211 192.734989,101.171352 C193.085458,100.776143 193.395376,100.413416 193.647366,100.099415 C193.795084,99.9153445 194.035488,99.7231537 194.325131,99.528256 C194.522089,99.3847897 194.74801,99.2467372 195,99.1113915 C194.37437,98.293904 193.572058,97.4899511 192.865329,97 Z M139.125428,47.1097137 C142.562345,44.9933161 143.324264,40.9493859 142.940544,37.110985 C142.562345,33.2614744 151.346497,33.075387 152.688137,31.5311389 C154.027016,29.995223 150.772297,27.4955409 148.29054,26.3401322 C145.806021,25.1902784 147.904059,22.6905962 146.186981,21.1546804 C144.467142,19.621542 141.604425,15.5748343 144.088943,15.3915242 C146.56794,15.1943271 142.363583,11.733656 144.467142,10.5838022 C144.751481,10.425489 145.07999,10.2616209 145.425062,10.092198 C144.169,9.46450003 143.073051,9.04233148 142.366344,9.04233148 C139.315908,9.04233148 132.052833,8.27576228 132.428271,13.2667944 C132.817512,18.2689362 128.229435,16.3414035 128.607634,19.0382828 C128.991354,21.7323847 126.313595,21.7323847 126.697316,25.1902784 C127.086557,28.6537269 124.795279,27.1122563 120.96636,29.039789 C117.145723,30.956212 118.675082,27.8816029 114.854445,27.8816029 C111.033808,27.8816029 110.650088,29.8063582 108.35605,30.5729274 C106.059251,31.3367191 101.479455,30.1896428 99.9500964,31.3367191 C98.423498,32.4921278 96.1294595,28.6537269 94.6001005,28.6537269 C93.8216181,28.6537269 93.145277,26.548439 92.6649368,24.48759 C92.3916398,24.4375963 92.143188,24.4042672 91.9251025,24.4209318 C89.4461054,24.6181289 85.3300869,31.2172899 87.7207455,33.4586716 C90.5889838,36.1499961 89.8270649,40.374459 91.1576624,42.493634 C92.4993023,44.6100315 96.711941,44.9877613 96.711941,49.0316916 C96.711941,53.0672896 100.333816,59.4081501 102.821095,57.6805919 C105.302853,55.9530338 107.213171,58.452716 107.977851,60.1747193 C108.74253,61.9078323 114.663966,58.8304457 116.579805,59.2137304 C118.487363,59.6025698 124.406038,60.7579785 124.798039,63.0604635 C125.176238,65.3685034 130.526234,62.8632663 134.156391,61.5245477 C137.783788,60.1747193 135.680229,49.2150016 139.125428,47.1097137 Z M153.087403,100.813464 C154.23925,102.649552 157.50328,102.649552 158.85219,103.875576 C160.198324,105.095705 165,107.74816 165,104.285233 C165,100.813464 151.807882,98.7710738 153.087403,100.813464 Z M143.331828,91.5825109 C142.573924,93.2649026 139.312726,93.63697 137.398605,92.3266457 C135.484483,91.0298021 133.111194,94.09801 134.336564,95.6860368 C134.911906,96.4355638 138.931008,99.4201914 143.716312,97.1823947 C148.507147,94.9472943 151.757281,96.9936649 152.907967,94.5698346 C154.055886,92.1433081 144.100795,89.9055115 143.331828,91.5825109 Z" id="path-1"></path>
        <filter x="-2.3%" y="-4.7%" width="104.7%" height="113.2%" filterUnits="objectBoundingBox" id="filter-2">
            <feOffset dx="0" dy="2" in="SourceAlpha" result="shadowOffsetOuter1"></feOffset>
            <feGaussianBlur stdDeviation="2" in="shadowOffsetOuter1" result="shadowBlurOuter1"></feGaussianBlur>
            <feColorMatrix values="0 0 0 0 0   0 0 0 0 0   0 0 0 0 0  0 0 0 0.00993546196 0" type="matrix" in="shadowBlurOuter1"></feColorMatrix>
        </filter>
    </defs>
    <g id="design" stroke="none" stroke-width="1" fill="none" fill-rule="evenodd">
        <g id="choose-country1" transform="translate(-695.000000, -159.000000)">
            <g id="Group-6" transform="translate(699.000000, 161.000000)">
                <g id="indonesia">
                    <use fill="black" fill-opacity="1" filter="url(#filter-2)" xlink:href="#path-1"></use>
                    <use fill="#999999" fill-rule="evenodd" xlink:href="#path-1"></use>
                </g>
                <text id="Indonesia" font-family="IBMPlexSerif, IBM Plex Serif" font-size="30" font-weight="normal" fill="#222222">
                    <tspan x="0" y="92">Indonesia</tspan>
                </text>
            </g>
        </g>
    </g>
</svg>