<?xml version="1.0" encoding="UTF-8"?>
<svg width="141px" height="143px" viewBox="0 0 141 143" version="1.1" xmlns="http://www.w3.org/2000/svg" xmlns:xlink="http://www.w3.org/1999/xlink">
    <!-- Generator: sketchtool 57.1 (101010) - https://sketch.com -->
    <title>5CA5C989-0C7E-4CEE-9BC2-4F3F161D7929</title>
    <desc>Created with sketchtool.</desc>
    <defs>
        <path d="M455.365265,138.020396 C455.004831,130.609434 450.663957,130.609434 450.846785,125.538225 C451.034838,120.49313 451.390048,115.965079 449.582656,115.416699 C447.77004,114.868319 448.856565,110.533506 451.745257,106.198694 C454.649621,101.869104 446.516358,101.310279 445.241782,95.8943742 C444.708967,93.5807333 447.294686,85.8041839 450.627391,77.3121294 C440.498684,70.3242026 430.108794,62.7356692 430.108794,62.7356692 L430.730411,55.2202531 L384.527002,30.7102825 C384.218805,36.3455389 381.915164,40.7012422 378.619025,42.2210379 C375.087821,43.8348417 383.508385,48.9896128 379.433919,49.8095713 C375.375123,50.6086392 366.150112,46.0074706 359.636189,48.7075889 C355.269196,50.5459672 356.172892,39.5992597 359.573505,30 L349.371666,30.8251812 C349.371666,30.8251812 346.608342,31.5197957 343.609952,32.3606449 L345.615844,37.6982094 C345.615844,37.6982094 348.123208,42.7015232 347.496367,45.8403453 C347.209065,47.2609104 344.962884,47.8980757 342.61223,48.1748769 C343.442795,51.8568563 343.10848,54.6039785 343.10848,54.6039785 L346.237461,56.4789155 C346.237461,56.4789155 339.357881,69.61392 336.228899,70.8621371 C335.393111,71.1963877 333.418562,72.3923782 331,73.9487326 C332.843957,83.1928511 335.100585,94.1656719 338.485527,97.2470447 C344.722595,102.93975 343.641295,109.447192 344.983779,113.24407 C346.347158,117.035725 351.774557,121.380983 347.976945,122.994787 C345.527041,124.049766 343.343545,121.427987 341.165272,117.860907 C340.940654,118.503294 340.679471,119.145682 340.381721,119.741066 C340.272024,119.949973 340.078748,120.096208 339.916814,120.273778 C343.239072,122.723208 347.109815,125.303205 348.744825,125.303205 C351.873807,125.303205 356.878088,129.053079 360.00707,129.685022 C363.136051,130.296074 374.299046,134.766676 375.651978,136.55805 C375.892267,136.887078 376.163898,137.299669 376.440753,137.769709 C379.104827,137.639142 382.609913,137.529466 384.678489,137.795822 C385.127725,137.393677 385.670987,137.085539 386.470209,137.085539 C390.602137,137.085539 395.486273,152.753537 395.272102,161.861866 C397.737677,162.190894 401.112172,162.582594 402.20392,162.582594 C404.021759,162.582594 406.189584,160.060046 409.443934,161.141138 C412.698284,162.22223 410.520011,164.75 413.413927,164.75 C416.313067,164.75 422.095676,162.942958 423.903067,163.298099 C425.720906,163.658463 430.777424,164.75 431.137858,162.582594 C431.493068,160.42041 432.595263,157.161467 435.123522,157.89264 C437.646557,158.613368 439.448726,160.775551 442.342642,158.242558 C445.247005,155.709566 449.943089,158.242558 451.029614,156.069929 C451.588547,154.941834 458.024115,151.823902 464,149.113339 C463.665685,142.167193 455.720474,145.269457 455.365265,138.020396 Z" id="path-1"></path>
        <filter x="-5.3%" y="-3.7%" width="110.5%" height="110.4%" filterUnits="objectBoundingBox" id="filter-2">
            <feOffset dx="0" dy="2" in="SourceAlpha" result="shadowOffsetOuter1"></feOffset>
            <feGaussianBlur stdDeviation="2" in="shadowOffsetOuter1" result="shadowBlurOuter1"></feGaussianBlur>
            <feColorMatrix values="0 0 0 0 0   0 0 0 0 0   0 0 0 0 0  0 0 0 0.00993546196 0" type="matrix" in="shadowBlurOuter1"></feColorMatrix>
        </filter>
    </defs>
    <g id="Page-1" stroke="none" stroke-width="1" fill="none" fill-rule="evenodd">
        <g id="choose-country-hover" transform="translate(-943.000000, -415.000000)">
            <g id="Group-5" transform="translate(616.000000, 387.000000)">
                <g id="Shape">
                    <use fill="black" fill-opacity="1" filter="url(#filter-2)" xlink:href="#path-1"></use>
                    <use fill="#999999" fill-rule="evenodd" xlink:href="#path-1"></use>
                </g>
            </g>
        </g>
    </g>
</svg>